2024-10-03 10:08:48,696 - routes - DEBUG - Response content: {"action_items":[{"summary":"Q4 strategy meeting between Thomas and the speaker","details":"Thomas has taken the initiative to hold a Q4 strategy meeting with the speaker to discuss future progress and adjustments. The speaker and Thomas will finalize their strategic goals for the following quarter.","assigned_to":"Thomas and the speaker","due_date":"2023-10-15T00:00:00Z","completed":false},{"summary":"Plan weekly meetings to enhance leading KPIs","details":"Schedule weekly meetings aimed at structuring and improving leading KPIs, as discussed in previous meetings.","assigned_to":"The speaker","due_date":null,"completed":false},{"summary":"Incorporate data-driven quick actions based on the discovery call insights","details":"Integrate insights from discovery calls (Koen's approach) into actionable strategies for maintaining or improving SQL to opportunity conversion ratios.","assigned_to":"Koen","due_date":null,"completed":false},{"summary":"Run Criteo ad experiment to target website visitors","details":"Experiment with Criteo platform by placing specific ads targeted at website visitors. Evaluate cost-effectiveness and potential inclusion in budget if successful.","assigned_to":"Marketing team","due_date":null,"completed":false},{"summary":"Review and discuss findings from call listening sessions","details":"Organize a meeting to discuss the outcomes and feedback from recent call listening sessions, with an emphasis on improving the discovery phase of calls.","assigned_to":"Anthony, Koen, and team","due_date":null,"completed":false},{"summary":"Focus on improving client follow-up sequences in HubSpot","details":"Enhance the client follow-up process within HubSpot, ensuring the implementation of efficient sequences and meeting scheduling to improve contact rates.","assigned_to":"CRM team","due_date":null,"completed":false},{"summary":"Finalize customer portal adjustments","details":"Review and potentially adjust the new customer portal based on the latest feedback to improve user experience and functionality as part of the ongoing digital transformation.","assigned_to":"IT and Customer Support teams","due_date":"2023-12-01T00:00:00Z","completed":false},{"summary":"Negotiate potential volume deals on LKW for discounts","details":"Consider bulk purchasing of LKWs to gain discounts, potentially integrating this strategy into sales tactics to enhance close rates and reduce customer acquisition cost (CAC).","assigned_to":"Sales and Procurement teams","due_date":null,"completed":false},{"summary":"Plan for new hire focusing on process automation","details":"Consider recruiting a part-time or short-term staff member dedicated to process automation improvements to streamline internal processes across teams.","assigned_to":"HR and Operations","due_date":null,"completed":false},{"summary":"Prepare report on potential impacts of using LKW bulk purchase deals","details":"Develop a business case analysis to assess the impact of using bulk purchasing discounts for LKWs, focusing on its effects on deal closing rates and overall sales efficiency.","assigned_to":"Thomas and data analysis team","due_date":null,"completed":false}]}
2024-10-03 10:08:48,806 - routes - INFO - Action points saved successfully for session_id: 162
2024-10-03 10:08:48,815 - auth - DEBUG - After request, Origin: http://localhost:3000
2024-10-03 10:08:48,816 - werkzeug - INFO - 127.0.0.1 - - [03/Oct/2024 10:08:48] "POST /api/extract_action_points/162 HTTP/1.1" 200 -
2024-10-03 10:09:15,813 - routes - ERROR - Error while fetching calendar events: 'User' object has no attribute 'google_oauth_token'
2024-10-03 10:09:15,817 - auth - DEBUG - After request, Origin: http://localhost:3000
2024-10-03 10:09:15,820 - werkzeug - INFO - 127.0.0.1 - - [03/Oct/2024 10:09:15] "[35m[1mGET /api/calendar/events HTTP/1.1[0m" 500 -
2024-10-03 10:09:15,825 - routes - ERROR - Error while fetching calendar events: 'User' object has no attribute 'google_oauth_token'
2024-10-03 10:09:15,826 - auth - DEBUG - After request, Origin: http://localhost:3000
2024-10-03 10:09:15,828 - minutememo_app.app - INFO - Local audio URL for session ID 162: http://localhost:5000/uploads/audio_recordings/09facf2e-78b1-481a-a0dc-e5c82ca5a2f9.mp3
2024-10-03 10:09:15,829 - auth - DEBUG - After request, Origin: http://localhost:3000
2024-10-03 10:09:15,829 - werkzeug - INFO - 127.0.0.1 - - [03/Oct/2024 10:09:15] "[35m[1mGET /api/calendar/events HTTP/1.1[0m" 500 -
2024-10-03 10:09:15,832 - werkzeug - INFO - 127.0.0.1 - - [03/Oct/2024 10:09:15] "GET /api/sessions/162 HTTP/1.1" 200 -
2024-10-03 10:09:15,842 - auth - DEBUG - After request, Origin: http://localhost:3000
2024-10-03 10:09:15,889 - werkzeug - INFO - 127.0.0.1 - - [03/Oct/2024 10:09:15] "GET /api/meetinghubs HTTP/1.1" 200 -
2024-10-03 10:09:15,891 - auth - DEBUG - After request, Origin: http://localhost:3000
2024-10-03 10:09:15,895 - werkzeug - INFO - 127.0.0.1 - - [03/Oct/2024 10:09:15] "GET /api/sessions/162/summaries HTTP/1.1" 200 -
2024-10-03 10:09:15,897 - routes - ERROR - Error while fetching calendar events: 'User' object has no attribute 'google_oauth_token'
2024-10-03 10:09:15,898 - auth - DEBUG - After request, Origin: http://localhost:3000
2024-10-03 10:09:15,900 - werkzeug - INFO - 127.0.0.1 - - [03/Oct/2024 10:09:15] "[35m[1mGET /api/calendar/events HTTP/1.1[0m" 500 -
2024-10-03 10:09:15,905 - routes - DEBUG - Fetching action points for session_id: 162
2024-10-03 10:09:15,909 - routes - DEBUG - Returning action points for session_id: 162
2024-10-03 10:09:15,910 - auth - DEBUG - After request, Origin: http://localhost:3000
2024-10-03 10:09:15,911 - werkzeug - INFO - 127.0.0.1 - - [03/Oct/2024 10:09:15] "GET /api/sessions/162/action_points HTTP/1.1" 200 -
2024-10-03 10:09:15,920 - auth - DEBUG - After request, Origin: http://localhost:3000
2024-10-03 10:09:15,921 - werkzeug - INFO - 127.0.0.1 - - [03/Oct/2024 10:09:15] "GET /api/meetinghubs HTTP/1.1" 200 -
2024-10-03 10:09:15,934 - minutememo_app.app - INFO - Local audio URL for session ID 162: http://localhost:5000/uploads/audio_recordings/09facf2e-78b1-481a-a0dc-e5c82ca5a2f9.mp3
2024-10-03 10:09:15,934 - auth - DEBUG - After request, Origin: http://localhost:3000
2024-10-03 10:09:15,936 - auth - DEBUG - After request, Origin: http://localhost:3000
2024-10-03 10:09:15,936 - werkzeug - INFO - 127.0.0.1 - - [03/Oct/2024 10:09:15] "GET /api/sessions/162 HTTP/1.1" 200 -
2024-10-03 10:09:15,937 - werkzeug - INFO - 127.0.0.1 - - [03/Oct/2024 10:09:15] "GET /api/meetinghubs HTTP/1.1" 200 -
2024-10-03 10:09:15,942 - minutememo_app.app - INFO - Local audio URL for session ID 162: http://localhost:5000/uploads/audio_recordings/09facf2e-78b1-481a-a0dc-e5c82ca5a2f9.mp3
2024-10-03 10:09:15,942 - auth - DEBUG - After request, Origin: http://localhost:3000
2024-10-03 10:09:15,943 - werkzeug - INFO - 127.0.0.1 - - [03/Oct/2024 10:09:15] "GET /api/sessions/162 HTTP/1.1" 200 -
2024-10-03 10:09:15,944 - auth - DEBUG - After request, Origin: http://localhost:3000
2024-10-03 10:09:15,947 - werkzeug - INFO - 127.0.0.1 - - [03/Oct/2024 10:09:15] "GET /api/sessions/162/summaries HTTP/1.1" 200 -
2024-10-03 10:09:15,949 - minutememo_app.app - INFO - Local audio URL for session ID 162: http://localhost:5000/uploads/audio_recordings/09facf2e-78b1-481a-a0dc-e5c82ca5a2f9.mp3
2024-10-03 10:09:15,949 - auth - DEBUG - After request, Origin: http://localhost:3000
2024-10-03 10:09:15,951 - werkzeug - INFO - 127.0.0.1 - - [03/Oct/2024 10:09:15] "GET /api/sessions/162 HTTP/1.1" 200 -
2024-10-03 10:09:15,952 - auth - DEBUG - After request, Origin: http://localhost:3000
2024-10-03 10:09:15,953 - werkzeug - INFO - 127.0.0.1 - - [03/Oct/2024 10:09:15] "GET /api/sessions/162/summaries HTTP/1.1" 200 -
2024-10-03 10:09:15,957 - auth - DEBUG - After request, Origin: None
2024-10-03 10:09:15,960 - werkzeug - INFO - 127.0.0.1 - - [03/Oct/2024 10:09:15] "[35m[1mGET /uploads/audio_recordings/09facf2e-78b1-481a-a0dc-e5c82ca5a2f9.mp3 HTTP/1.1[0m" 206 -
2024-10-03 10:09:15,961 - routes - DEBUG - Fetching action points for session_id: 162
2024-10-03 10:09:15,965 - auth - DEBUG - After request, Origin: http://localhost:3000
2024-10-03 10:09:15,968 - werkzeug - INFO - 127.0.0.1 - - [03/Oct/2024 10:09:15] "GET /api/sessions/162/summaries HTTP/1.1" 200 -
2024-10-03 10:09:15,995 - routes - DEBUG - Returning action points for session_id: 162
2024-10-03 10:09:15,996 - auth - DEBUG - After request, Origin: http://localhost:3000
2024-10-03 10:09:15,997 - werkzeug - INFO - 127.0.0.1 - - [03/Oct/2024 10:09:15] "GET /api/sessions/162/action_points HTTP/1.1" 200 -
2024-10-03 10:09:15,999 - routes - DEBUG - Fetching action points for session_id: 162
2024-10-03 10:09:16,001 - routes - DEBUG - Returning action points for session_id: 162
2024-10-03 10:09:16,001 - auth - DEBUG - After request, Origin: http://localhost:3000
2024-10-03 10:09:16,003 - werkzeug - INFO - 127.0.0.1 - - [03/Oct/2024 10:09:16] "GET /api/sessions/162/action_points HTTP/1.1" 200 -
2024-10-03 10:09:16,005 - routes - DEBUG - Fetching action points for session_id: 162
2024-10-03 10:09:16,008 - routes - DEBUG - Returning action points for session_id: 162
2024-10-03 10:09:16,008 - auth - DEBUG - After request, Origin: http://localhost:3000
2024-10-03 10:09:16,009 - werkzeug - INFO - 127.0.0.1 - - [03/Oct/2024 10:09:16] "GET /api/sessions/162/action_points HTTP/1.1" 200 -
2024-10-03 12:06:32,613 - routes - ERROR - Error while fetching calendar events: 'User' object has no attribute 'google_oauth_token'
2024-10-03 12:06:32,618 - auth - DEBUG - After request, Origin: http://localhost:3000
2024-10-03 12:06:32,622 - werkzeug - INFO - 127.0.0.1 - - [03/Oct/2024 12:06:32] "[35m[1mGET /api/calendar/events HTTP/1.1[0m" 500 -
2024-10-03 12:06:32,677 - auth - DEBUG - After request, Origin: http://localhost:3000
2024-10-03 12:06:32,680 - werkzeug - INFO - 127.0.0.1 - - [03/Oct/2024 12:06:32] "GET /api/meetinghubs HTTP/1.1" 200 -
2024-10-03 12:06:32,715 - routes - ERROR - Error while fetching calendar events: 'User' object has no attribute 'google_oauth_token'
2024-10-03 12:06:32,715 - auth - DEBUG - After request, Origin: http://localhost:3000
2024-10-03 12:06:32,722 - werkzeug - INFO - 127.0.0.1 - - [03/Oct/2024 12:06:32] "[35m[1mGET /api/calendar/events HTTP/1.1[0m" 500 -
2024-10-03 12:06:32,726 - routes - ERROR - Error while fetching calendar events: 'User' object has no attribute 'google_oauth_token'
2024-10-03 12:06:32,726 - auth - DEBUG - After request, Origin: http://localhost:3000
2024-10-03 12:06:32,728 - werkzeug - INFO - 127.0.0.1 - - [03/Oct/2024 12:06:32] "[35m[1mGET /api/calendar/events HTTP/1.1[0m" 500 -
2024-10-03 12:06:32,734 - auth - DEBUG - After request, Origin: http://localhost:3000
2024-10-03 12:06:32,735 - werkzeug - INFO - 127.0.0.1 - - [03/Oct/2024 12:06:32] "GET /api/meetinghubs HTTP/1.1" 200 -
2024-10-03 12:06:32,750 - auth - DEBUG - After request, Origin: http://localhost:3000
2024-10-03 12:06:32,753 - minutememo_app.app - INFO - User beta@test.com has an active subscription.
2024-10-03 12:06:32,753 - werkzeug - INFO - 127.0.0.1 - - [03/Oct/2024 12:06:32] "GET /api/meetinghubs HTTP/1.1" 200 -
2024-10-03 12:06:32,754 - auth - DEBUG - After request, Origin: http://localhost:3000
2024-10-03 12:06:32,756 - werkzeug - INFO - 127.0.0.1 - - [03/Oct/2024 12:06:32] "GET /api/subscription-status HTTP/1.1" 200 -
2024-10-03 12:06:32,775 - minutememo_app.app - INFO - User beta@test.com has an active subscription.
2024-10-03 12:06:32,775 - auth - DEBUG - After request, Origin: http://localhost:3000
2024-10-03 12:06:32,776 - werkzeug - INFO - 127.0.0.1 - - [03/Oct/2024 12:06:32] "GET /api/subscription-status HTTP/1.1" 200 -
2024-10-03 12:06:32,786 - minutememo_app.app - INFO - User beta@test.com has an active subscription.
2024-10-03 12:06:32,786 - auth - DEBUG - After request, Origin: http://localhost:3000
2024-10-03 12:06:32,787 - werkzeug - INFO - 127.0.0.1 - - [03/Oct/2024 12:06:32] "GET /api/subscription-status HTTP/1.1" 200 -
2024-10-03 12:06:32,798 - minutememo_app.app - INFO - GET /api/meetings called with hub_id: 29, meeting_id: None
2024-10-03 12:06:32,800 - minutememo_app.app - INFO - Fetching meeting sessions for hub ID: 29
2024-10-03 12:06:32,800 - minutememo_app.app - INFO - Fetching meetings for hub_id: 29
2024-10-03 12:06:32,802 - minutememo_app.app - INFO - Successfully fetched 3 meetings for hub_id: 29
2024-10-03 12:06:32,802 - minutememo_app.app - INFO - User beta@test.com has an active subscription.
2024-10-03 12:06:32,803 - auth - DEBUG - After request, Origin: http://localhost:3000
2024-10-03 12:06:32,803 - auth - DEBUG - After request, Origin: http://localhost:3000
2024-10-03 12:06:32,805 - werkzeug - INFO - 127.0.0.1 - - [03/Oct/2024 12:06:32] "GET /api/meetings?hub_id=29 HTTP/1.1" 200 -
2024-10-03 12:06:32,805 - werkzeug - INFO - 127.0.0.1 - - [03/Oct/2024 12:06:32] "GET /api/subscription-status HTTP/1.1" 200 -
2024-10-03 12:06:32,832 - auth - DEBUG - After request, Origin: http://localhost:3000
2024-10-03 12:06:32,833 - werkzeug - INFO - 127.0.0.1 - - [03/Oct/2024 12:06:32] "GET /api/meetingsessions?hub_id=29 HTTP/1.1" 200 -
2024-10-03 12:06:36,234 - minutememo_app.app - INFO - GET /api/meetings called with hub_id: 29, meeting_id: None
2024-10-03 12:06:36,235 - minutememo_app.app - INFO - Fetching meetings for hub_id: 29
2024-10-03 12:06:36,237 - minutememo_app.app - INFO - GET /api/meetings called with hub_id: None, meeting_id: 132
2024-10-03 12:06:36,237 - minutememo_app.app - INFO - Fetching meeting sessions for meeting_id: 132
2024-10-03 12:06:36,241 - minutememo_app.app - INFO - Successfully fetched 3 meetings for hub_id: 29
2024-10-03 12:06:36,242 - auth - DEBUG - After request, Origin: http://localhost:3000
2024-10-03 12:06:36,242 - minutememo_app.app - INFO - Successfully fetched 4 sessions for meeting_id: 132
2024-10-03 12:06:36,243 - auth - DEBUG - After request, Origin: http://localhost:3000
2024-10-03 12:06:36,244 - werkzeug - INFO - 127.0.0.1 - - [03/Oct/2024 12:06:36] "GET /api/meetings?hub_id=29 HTTP/1.1" 200 -
2024-10-03 12:06:36,245 - werkzeug - INFO - 127.0.0.1 - - [03/Oct/2024 12:06:36] "GET /api/meetings?meeting_id=132 HTTP/1.1" 200 -
2024-10-03 12:06:36,247 - minutememo_app.app - INFO - GET /api/meetings called with hub_id: 29, meeting_id: None
2024-10-03 12:06:36,248 - minutememo_app.app - INFO - GET /api/meetings called with hub_id: None, meeting_id: 132
2024-10-03 12:06:36,248 - minutememo_app.app - INFO - Fetching meetings for hub_id: 29
2024-10-03 12:06:36,248 - minutememo_app.app - INFO - Fetching meeting sessions for meeting_id: 132
2024-10-03 12:06:36,249 - minutememo_app.app - INFO - Successfully fetched 3 meetings for hub_id: 29
2024-10-03 12:06:36,249 - auth - DEBUG - After request, Origin: http://localhost:3000
2024-10-03 12:06:36,250 - werkzeug - INFO - 127.0.0.1 - - [03/Oct/2024 12:06:36] "GET /api/meetings?hub_id=29 HTTP/1.1" 200 -
2024-10-03 12:06:36,253 - minutememo_app.app - INFO - Successfully fetched 4 sessions for meeting_id: 132
2024-10-03 12:06:36,254 - auth - DEBUG - After request, Origin: http://localhost:3000
2024-10-03 12:06:36,256 - werkzeug - INFO - 127.0.0.1 - - [03/Oct/2024 12:06:36] "GET /api/meetings?meeting_id=132 HTTP/1.1" 200 -
2024-10-03 12:06:37,362 - minutememo_app.app - INFO - Local audio URL for session ID 162: http://localhost:5000/uploads/audio_recordings/09facf2e-78b1-481a-a0dc-e5c82ca5a2f9.mp3
2024-10-03 12:06:37,363 - auth - DEBUG - After request, Origin: http://localhost:3000
2024-10-03 12:06:37,364 - werkzeug - INFO - 127.0.0.1 - - [03/Oct/2024 12:06:37] "GET /api/sessions/162 HTTP/1.1" 200 -
2024-10-03 12:06:37,387 - auth - DEBUG - After request, Origin: None
2024-10-03 12:06:37,388 - werkzeug - INFO - 127.0.0.1 - - [03/Oct/2024 12:06:37] "[35m[1mGET /uploads/audio_recordings/09facf2e-78b1-481a-a0dc-e5c82ca5a2f9.mp3 HTTP/1.1[0m" 206 -
2024-10-03 12:06:37,394 - auth - DEBUG - After request, Origin: http://localhost:3000
2024-10-03 12:06:37,394 - minutememo_app.app - INFO - Local audio URL for session ID 162: http://localhost:5000/uploads/audio_recordings/09facf2e-78b1-481a-a0dc-e5c82ca5a2f9.mp3
2024-10-03 12:06:37,395 - auth - DEBUG - After request, Origin: http://localhost:3000
2024-10-03 12:06:37,395 - werkzeug - INFO - 127.0.0.1 - - [03/Oct/2024 12:06:37] "GET /api/sessions/162/summaries HTTP/1.1" 200 -
2024-10-03 12:06:37,396 - werkzeug - INFO - 127.0.0.1 - - [03/Oct/2024 12:06:37] "GET /api/sessions/162 HTTP/1.1" 200 -
2024-10-03 12:06:37,400 - routes - DEBUG - Fetching action points for session_id: 162
2024-10-03 12:06:37,405 - auth - DEBUG - After request, Origin: http://localhost:3000
2024-10-03 12:06:37,409 - werkzeug - INFO - 127.0.0.1 - - [03/Oct/2024 12:06:37] "GET /api/sessions/162/summaries HTTP/1.1" 200 -
2024-10-03 12:06:37,411 - routes - DEBUG - Returning action points for session_id: 162
2024-10-03 12:06:37,411 - auth - DEBUG - After request, Origin: http://localhost:3000
2024-10-03 12:06:37,412 - werkzeug - INFO - 127.0.0.1 - - [03/Oct/2024 12:06:37] "GET /api/sessions/162/action_points HTTP/1.1" 200 -
2024-10-03 12:06:37,414 - routes - DEBUG - Fetching action points for session_id: 162
2024-10-03 12:06:37,418 - routes - DEBUG - Returning action points for session_id: 162
2024-10-03 12:06:37,418 - auth - DEBUG - After request, Origin: http://localhost:3000
2024-10-03 12:06:37,420 - werkzeug - INFO - 127.0.0.1 - - [03/Oct/2024 12:06:37] "GET /api/sessions/162/action_points HTTP/1.1" 200 -
2024-10-03 12:06:40,764 - minutememo_app.app - INFO - GET /api/meetings called with hub_id: 29, meeting_id: None
2024-10-03 12:06:40,766 - minutememo_app.app - INFO - Fetching meetings for hub_id: 29
2024-10-03 12:06:40,766 - minutememo_app.app - INFO - GET /api/meetings called with hub_id: None, meeting_id: 132
2024-10-03 12:06:40,767 - minutememo_app.app - INFO - Fetching meeting sessions for meeting_id: 132
2024-10-03 12:06:40,768 - minutememo_app.app - INFO - Successfully fetched 3 meetings for hub_id: 29
2024-10-03 12:06:40,768 - auth - DEBUG - After request, Origin: http://localhost:3000
2024-10-03 12:06:40,769 - werkzeug - INFO - 127.0.0.1 - - [03/Oct/2024 12:06:40] "GET /api/meetings?hub_id=29 HTTP/1.1" 200 -
2024-10-03 12:06:40,771 - minutememo_app.app - INFO - Successfully fetched 4 sessions for meeting_id: 132
2024-10-03 12:06:40,772 - auth - DEBUG - After request, Origin: http://localhost:3000
2024-10-03 12:06:40,795 - werkzeug - INFO - 127.0.0.1 - - [03/Oct/2024 12:06:40] "GET /api/meetings?meeting_id=132 HTTP/1.1" 200 -
2024-10-03 12:06:40,798 - minutememo_app.app - INFO - GET /api/meetings called with hub_id: 29, meeting_id: None
2024-10-03 12:06:40,803 - minutememo_app.app - INFO - Fetching meetings for hub_id: 29
2024-10-03 12:06:40,811 - minutememo_app.app - INFO - GET /api/meetings called with hub_id: None, meeting_id: 132
2024-10-03 12:06:40,811 - minutememo_app.app - INFO - Successfully fetched 3 meetings for hub_id: 29
2024-10-03 12:06:40,813 - minutememo_app.app - INFO - Fetching meeting sessions for meeting_id: 132
2024-10-03 12:06:40,813 - auth - DEBUG - After request, Origin: http://localhost:3000
2024-10-03 12:06:40,819 - werkzeug - INFO - 127.0.0.1 - - [03/Oct/2024 12:06:40] "GET /api/meetings?hub_id=29 HTTP/1.1" 200 -
2024-10-03 12:06:40,820 - minutememo_app.app - INFO - Successfully fetched 4 sessions for meeting_id: 132
2024-10-03 12:06:40,821 - auth - DEBUG - After request, Origin: http://localhost:3000
2024-10-03 12:06:40,826 - werkzeug - INFO - 127.0.0.1 - - [03/Oct/2024 12:06:40] "GET /api/meetings?meeting_id=132 HTTP/1.1" 200 -
2024-10-03 12:06:42,575 - minutememo_app.app - INFO - User beta@test.com has an active subscription.
2024-10-03 12:06:42,575 - auth - DEBUG - After request, Origin: http://localhost:3000
2024-10-03 12:06:42,577 - werkzeug - INFO - 127.0.0.1 - - [03/Oct/2024 12:06:42] "GET /api/subscription-status HTTP/1.1" 200 -
2024-10-03 12:06:42,586 - minutememo_app.app - INFO - User beta@test.com has an active subscription.
2024-10-03 12:06:42,589 - minutememo_app.app - INFO - GET /api/meetings called with hub_id: 29, meeting_id: None
2024-10-03 12:06:42,589 - minutememo_app.app - INFO - Fetching meeting sessions for hub ID: 29
2024-10-03 12:06:42,589 - auth - DEBUG - After request, Origin: http://localhost:3000
2024-10-03 12:06:42,589 - minutememo_app.app - INFO - Fetching meetings for hub_id: 29
2024-10-03 12:06:42,591 - werkzeug - INFO - 127.0.0.1 - - [03/Oct/2024 12:06:42] "GET /api/subscription-status HTTP/1.1" 200 -
2024-10-03 12:06:42,592 - minutememo_app.app - INFO - Successfully fetched 3 meetings for hub_id: 29
2024-10-03 12:06:42,592 - auth - DEBUG - After request, Origin: http://localhost:3000
2024-10-03 12:06:42,594 - werkzeug - INFO - 127.0.0.1 - - [03/Oct/2024 12:06:42] "GET /api/meetings?hub_id=29 HTTP/1.1" 200 -
2024-10-03 12:06:42,602 - auth - DEBUG - After request, Origin: http://localhost:3000
2024-10-03 12:06:42,603 - werkzeug - INFO - 127.0.0.1 - - [03/Oct/2024 12:06:42] "GET /api/meetingsessions?hub_id=29 HTTP/1.1" 200 -
2024-10-03 12:06:45,870 - minutememo_app.app - INFO - GET /api/meetings called with hub_id: 29, meeting_id: None
2024-10-03 12:06:45,871 - minutememo_app.app - INFO - Fetching meetings for hub_id: 29
2024-10-03 12:06:45,872 - minutememo_app.app - INFO - GET /api/meetings called with hub_id: None, meeting_id: 132
2024-10-03 12:06:45,873 - minutememo_app.app - INFO - Fetching meeting sessions for meeting_id: 132
2024-10-03 12:06:45,874 - minutememo_app.app - INFO - Successfully fetched 3 meetings for hub_id: 29
2024-10-03 12:06:45,874 - auth - DEBUG - After request, Origin: http://localhost:3000
2024-10-03 12:06:45,876 - minutememo_app.app - INFO - Successfully fetched 4 sessions for meeting_id: 132
2024-10-03 12:06:45,877 - werkzeug - INFO - 127.0.0.1 - - [03/Oct/2024 12:06:45] "GET /api/meetings?hub_id=29 HTTP/1.1" 200 -
2024-10-03 12:06:45,877 - auth - DEBUG - After request, Origin: http://localhost:3000
2024-10-03 12:06:45,879 - werkzeug - INFO - 127.0.0.1 - - [03/Oct/2024 12:06:45] "GET /api/meetings?meeting_id=132 HTTP/1.1" 200 -
2024-10-03 12:06:45,881 - minutememo_app.app - INFO - GET /api/meetings called with hub_id: 29, meeting_id: None
2024-10-03 12:06:45,882 - minutememo_app.app - INFO - Fetching meetings for hub_id: 29
2024-10-03 12:06:45,883 - minutememo_app.app - INFO - GET /api/meetings called with hub_id: None, meeting_id: 132
2024-10-03 12:06:45,883 - minutememo_app.app - INFO - Successfully fetched 3 meetings for hub_id: 29
2024-10-03 12:06:45,883 - minutememo_app.app - INFO - Fetching meeting sessions for meeting_id: 132
2024-10-03 12:06:45,883 - auth - DEBUG - After request, Origin: http://localhost:3000
2024-10-03 12:06:45,884 - werkzeug - INFO - 127.0.0.1 - - [03/Oct/2024 12:06:45] "GET /api/meetings?hub_id=29 HTTP/1.1" 200 -
2024-10-03 12:06:45,885 - minutememo_app.app - INFO - Successfully fetched 4 sessions for meeting_id: 132
2024-10-03 12:06:45,885 - auth - DEBUG - After request, Origin: http://localhost:3000
2024-10-03 12:06:45,887 - werkzeug - INFO - 127.0.0.1 - - [03/Oct/2024 12:06:45] "GET /api/meetings?meeting_id=132 HTTP/1.1" 200 -
2024-10-03 12:06:47,930 - minutememo_app.app - INFO - Local audio URL for session ID 162: http://localhost:5000/uploads/audio_recordings/09facf2e-78b1-481a-a0dc-e5c82ca5a2f9.mp3
2024-10-03 12:06:47,930 - auth - DEBUG - After request, Origin: http://localhost:3000
2024-10-03 12:06:47,931 - werkzeug - INFO - 127.0.0.1 - - [03/Oct/2024 12:06:47] "GET /api/sessions/162 HTTP/1.1" 200 -
2024-10-03 12:06:47,946 - minutememo_app.app - INFO - Local audio URL for session ID 162: http://localhost:5000/uploads/audio_recordings/09facf2e-78b1-481a-a0dc-e5c82ca5a2f9.mp3
2024-10-03 12:06:47,946 - auth - DEBUG - After request, Origin: http://localhost:3000
2024-10-03 12:06:47,948 - auth - DEBUG - After request, Origin: http://localhost:3000
2024-10-03 12:06:47,948 - werkzeug - INFO - 127.0.0.1 - - [03/Oct/2024 12:06:47] "GET /api/sessions/162 HTTP/1.1" 200 -
2024-10-03 12:06:47,952 - werkzeug - INFO - 127.0.0.1 - - [03/Oct/2024 12:06:47] "GET /api/sessions/162/summaries HTTP/1.1" 200 -
2024-10-03 12:06:47,955 - routes - DEBUG - Fetching action points for session_id: 162
2024-10-03 12:06:47,957 - auth - DEBUG - After request, Origin: http://localhost:3000
2024-10-03 12:06:47,959 - werkzeug - INFO - 127.0.0.1 - - [03/Oct/2024 12:06:47] "GET /api/sessions/162/summaries HTTP/1.1" 200 -
2024-10-03 12:06:47,959 - routes - DEBUG - Returning action points for session_id: 162
2024-10-03 12:06:47,960 - auth - DEBUG - After request, Origin: http://localhost:3000
2024-10-03 12:06:47,961 - werkzeug - INFO - 127.0.0.1 - - [03/Oct/2024 12:06:47] "GET /api/sessions/162/action_points HTTP/1.1" 200 -
2024-10-03 12:06:47,964 - routes - DEBUG - Fetching action points for session_id: 162
2024-10-03 12:06:47,969 - routes - DEBUG - Returning action points for session_id: 162
2024-10-03 12:06:47,970 - auth - DEBUG - After request, Origin: http://localhost:3000
2024-10-03 12:06:47,971 - werkzeug - INFO - 127.0.0.1 - - [03/Oct/2024 12:06:47] "GET /api/sessions/162/action_points HTTP/1.1" 200 -
2024-10-03 12:07:02,610 - minutememo_app.app - INFO - Local audio URL for session ID 162: http://localhost:5000/uploads/audio_recordings/09facf2e-78b1-481a-a0dc-e5c82ca5a2f9.mp3
2024-10-03 12:07:02,613 - auth - DEBUG - After request, Origin: http://localhost:3000
2024-10-03 12:07:02,615 - routes - ERROR - Error while fetching calendar events: 'User' object has no attribute 'google_oauth_token'
2024-10-03 12:07:02,616 - auth - DEBUG - After request, Origin: http://localhost:3000
2024-10-03 12:07:02,616 - auth - DEBUG - After request, Origin: http://localhost:3000
2024-10-03 12:07:02,616 - werkzeug - INFO - 127.0.0.1 - - [03/Oct/2024 12:07:02] "GET /api/sessions/162 HTTP/1.1" 200 -
2024-10-03 12:07:02,620 - werkzeug - INFO - 127.0.0.1 - - [03/Oct/2024 12:07:02] "GET /api/meetinghubs HTTP/1.1" 200 -
2024-10-03 12:07:02,638 - werkzeug - INFO - 127.0.0.1 - - [03/Oct/2024 12:07:02] "[35m[1mGET /api/calendar/events HTTP/1.1[0m" 500 -
2024-10-03 12:07:02,658 - routes - ERROR - Error while fetching calendar events: 'User' object has no attribute 'google_oauth_token'
2024-10-03 12:07:02,658 - auth - DEBUG - After request, Origin: http://localhost:3000
2024-10-03 12:07:02,665 - minutememo_app.app - INFO - Local audio URL for session ID 162: http://localhost:5000/uploads/audio_recordings/09facf2e-78b1-481a-a0dc-e5c82ca5a2f9.mp3
2024-10-03 12:07:02,665 - auth - DEBUG - After request, Origin: http://localhost:3000
2024-10-03 12:07:02,666 - auth - DEBUG - After request, Origin: http://localhost:3000
2024-10-03 12:07:02,667 - werkzeug - INFO - 127.0.0.1 - - [03/Oct/2024 12:07:02] "[35m[1mGET /api/calendar/events HTTP/1.1[0m" 500 -
2024-10-03 12:07:02,669 - auth - DEBUG - After request, Origin: http://localhost:3000
2024-10-03 12:07:02,669 - werkzeug - INFO - 127.0.0.1 - - [03/Oct/2024 12:07:02] "GET /api/sessions/162 HTTP/1.1" 200 -
2024-10-03 12:07:02,671 - werkzeug - INFO - 127.0.0.1 - - [03/Oct/2024 12:07:02] "GET /api/sessions/162/summaries HTTP/1.1" 200 -
2024-10-03 12:07:02,671 - werkzeug - INFO - 127.0.0.1 - - [03/Oct/2024 12:07:02] "GET /api/meetinghubs HTTP/1.1" 200 -
2024-10-03 12:07:02,672 - routes - ERROR - Error while fetching calendar events: 'User' object has no attribute 'google_oauth_token'
2024-10-03 12:07:02,672 - auth - DEBUG - After request, Origin: http://localhost:3000
2024-10-03 12:07:02,674 - werkzeug - INFO - 127.0.0.1 - - [03/Oct/2024 12:07:02] "[35m[1mGET /api/calendar/events HTTP/1.1[0m" 500 -
2024-10-03 12:07:02,679 - routes - DEBUG - Fetching action points for session_id: 162
2024-10-03 12:07:02,680 - minutememo_app.app - INFO - Local audio URL for session ID 162: http://localhost:5000/uploads/audio_recordings/09facf2e-78b1-481a-a0dc-e5c82ca5a2f9.mp3
2024-10-03 12:07:02,681 - auth - DEBUG - After request, Origin: http://localhost:3000
2024-10-03 12:07:02,683 - werkzeug - INFO - 127.0.0.1 - - [03/Oct/2024 12:07:02] "GET /api/sessions/162 HTTP/1.1" 200 -
2024-10-03 12:07:02,684 - routes - DEBUG - Returning action points for session_id: 162
2024-10-03 12:07:02,685 - auth - DEBUG - After request, Origin: http://localhost:3000
2024-10-03 12:07:02,686 - auth - DEBUG - After request, Origin: http://localhost:3000
2024-10-03 12:07:02,686 - werkzeug - INFO - 127.0.0.1 - - [03/Oct/2024 12:07:02] "GET /api/sessions/162/action_points HTTP/1.1" 200 -
2024-10-03 12:07:02,687 - auth - DEBUG - After request, Origin: http://localhost:3000
2024-10-03 12:07:02,688 - werkzeug - INFO - 127.0.0.1 - - [03/Oct/2024 12:07:02] "GET /api/meetinghubs HTTP/1.1" 200 -
2024-10-03 12:07:02,690 - werkzeug - INFO - 127.0.0.1 - - [03/Oct/2024 12:07:02] "GET /api/sessions/162/summaries HTTP/1.1" 200 -
2024-10-03 12:07:02,692 - minutememo_app.app - INFO - Local audio URL for session ID 162: http://localhost:5000/uploads/audio_recordings/09facf2e-78b1-481a-a0dc-e5c82ca5a2f9.mp3
2024-10-03 12:07:02,692 - auth - DEBUG - After request, Origin: http://localhost:3000
2024-10-03 12:07:02,694 - werkzeug - INFO - 127.0.0.1 - - [03/Oct/2024 12:07:02] "GET /api/sessions/162 HTTP/1.1" 200 -
2024-10-03 12:07:02,697 - auth - DEBUG - After request, Origin: http://localhost:3000
2024-10-03 12:07:02,697 - routes - DEBUG - Fetching action points for session_id: 162
2024-10-03 12:07:02,698 - werkzeug - INFO - 127.0.0.1 - - [03/Oct/2024 12:07:02] "GET /api/sessions/162/summaries HTTP/1.1" 200 -
2024-10-03 12:07:02,702 - routes - DEBUG - Returning action points for session_id: 162
2024-10-03 12:07:02,702 - auth - DEBUG - After request, Origin: http://localhost:3000
2024-10-03 12:07:02,703 - auth - DEBUG - After request, Origin: http://localhost:3000
2024-10-03 12:07:02,703 - werkzeug - INFO - 127.0.0.1 - - [03/Oct/2024 12:07:02] "GET /api/sessions/162/action_points HTTP/1.1" 200 -
2024-10-03 12:07:02,704 - werkzeug - INFO - 127.0.0.1 - - [03/Oct/2024 12:07:02] "GET /api/sessions/162/summaries HTTP/1.1" 200 -
2024-10-03 12:07:02,706 - routes - DEBUG - Fetching action points for session_id: 162
2024-10-03 12:07:02,710 - routes - DEBUG - Returning action points for session_id: 162
2024-10-03 12:07:02,710 - auth - DEBUG - After request, Origin: http://localhost:3000
2024-10-03 12:07:02,711 - werkzeug - INFO - 127.0.0.1 - - [03/Oct/2024 12:07:02] "GET /api/sessions/162/action_points HTTP/1.1" 200 -
2024-10-03 12:07:02,713 - routes - DEBUG - Fetching action points for session_id: 162
2024-10-03 12:07:02,719 - routes - DEBUG - Returning action points for session_id: 162
2024-10-03 12:07:02,719 - auth - DEBUG - After request, Origin: http://localhost:3000
2024-10-03 12:07:02,721 - werkzeug - INFO - 127.0.0.1 - - [03/Oct/2024 12:07:02] "GET /api/sessions/162/action_points HTTP/1.1" 200 -
2024-10-03 12:07:51,621 - auth - DEBUG - After request, Origin: http://localhost:3000
2024-10-03 12:07:51,625 - werkzeug - INFO - 127.0.0.1 - - [03/Oct/2024 12:07:51] "OPTIONS /api/transcribe/162 HTTP/1.1" 200 -
2024-10-03 12:07:51,634 - minutememo_app.app - INFO - Received transcription request for session ID: 162
2024-10-03 12:07:51,635 - minutememo_app.app - INFO - User beta@test.com is requesting transcription for session ID: 162
2024-10-03 12:07:51,638 - minutememo_app.app - INFO - Fetched session for session ID 162: <MeetingSession 162>
2024-10-03 12:07:51,639 - minutememo_app.app - INFO - Language selected for transcription: en
2024-10-03 12:07:51,639 - minutememo_app.app - INFO - Audio URL for session ID 162: http://localhost:5000/uploads/audio_recordings/09facf2e-78b1-481a-a0dc-e5c82ca5a2f9.mp3
2024-10-03 12:07:51,639 - minutememo_app.app - INFO - Transcribing audio for session ID 162 from URL: http://localhost:5000/uploads/audio_recordings/09facf2e-78b1-481a-a0dc-e5c82ca5a2f9.mp3 in language: en
2024-10-03 12:07:51,655 - urllib3.connectionpool - DEBUG - Starting new HTTP connection (1): localhost:5000
2024-10-03 12:07:51,658 - auth - DEBUG - After request, Origin: None
2024-10-03 12:07:51,659 - werkzeug - INFO - 127.0.0.1 - - [03/Oct/2024 12:07:51] "GET /uploads/audio_recordings/09facf2e-78b1-481a-a0dc-e5c82ca5a2f9.mp3 HTTP/1.1" 200 -
2024-10-03 12:07:51,660 - urllib3.connectionpool - DEBUG - http://localhost:5000 "GET /uploads/audio_recordings/09facf2e-78b1-481a-a0dc-e5c82ca5a2f9.mp3 HTTP/11" 200 26891948
2024-10-03 12:07:51,741 - minutememo_app.app - INFO - Temporary audio file created at /var/folders/wt/j1gbj0y9587fq_vzh2v9451r0000gn/T/tmpig1k0jgv.mp3
2024-10-03 12:07:54,492 - pydub.converter - DEBUG - subprocess.call(['ffmpeg', '-y', '-f', 'mp3', '-i', '/var/folders/wt/j1gbj0y9587fq_vzh2v9451r0000gn/T/tmpig1k0jgv.mp3', '-acodec', 'pcm_s16le', '-vn', '-f', 'wav', '-'])
2024-10-03 12:07:57,881 - httpx - DEBUG - load_ssl_context verify=True cert=None trust_env=True http2=False
2024-10-03 12:07:57,884 - httpx - DEBUG - load_verify_locations cafile='/Users/gaetanbuelinckx/minutememo_app/venv/lib/python3.12/site-packages/certifi/cacert.pem'
2024-10-03 12:07:57,904 - minutememo_app.app - INFO - Processing chunk 1 of 6
2024-10-03 12:07:57,972 - pydub.converter - DEBUG - subprocess.call(['ffmpeg', '-y', '-f', 'wav', '-i', '/var/folders/wt/j1gbj0y9587fq_vzh2v9451r0000gn/T/tmpgob8oc6p', '-f', 'mp3', '/var/folders/wt/j1gbj0y9587fq_vzh2v9451r0000gn/T/tmpyizjo4v4'])
2024-10-03 12:08:01,511 - pydub.converter - DEBUG - subprocess output: b'ffmpeg version 7.0.2 Copyright (c) 2000-2024 the FFmpeg developers'
2024-10-03 12:08:01,512 - pydub.converter - DEBUG - subprocess output: b'  built with Apple clang version 15.0.0 (clang-1500.3.9.4)'
2024-10-03 12:08:01,512 - pydub.converter - DEBUG - subprocess output: b"  configuration: --prefix=/usr/local/Cellar/ffmpeg/7.0.2 --enable-shared --enable-pthreads --enable-version3 --cc=clang --host-cflags= --host-ldflags='-Wl,-ld_classic' --enable-ffplay --enable-gnutls --enable-gpl --enable-libaom --enable-libaribb24 --enable-libbluray --enable-libdav1d --enable-libharfbuzz --enable-libjxl --enable-libmp3lame --enable-libopus --enable-librav1e --enable-librist --enable-librubberband --enable-libsnappy --enable-libsrt --enable-libssh --enable-libsvtav1 --enable-libtesseract --enable-libtheora --enable-libvidstab --enable-libvmaf --enable-libvorbis --enable-libvpx --enable-libwebp --enable-libx264 --enable-libx265 --enable-libxml2 --enable-libxvid --enable-lzma --enable-libfontconfig --enable-libfreetype --enable-frei0r --enable-libass --enable-libopencore-amrnb --enable-libopencore-amrwb --enable-libopenjpeg --enable-libspeex --enable-libsoxr --enable-libzmq --enable-libzimg --disable-libjack --disable-indev=jack --enable-videotoolbox --enable-audiotoolbox"
2024-10-03 12:08:01,512 - pydub.converter - DEBUG - subprocess output: b'  libavutil      59.  8.100 / 59.  8.100'
2024-10-03 12:08:01,512 - pydub.converter - DEBUG - subprocess output: b'  libavcodec     61.  3.100 / 61.  3.100'
2024-10-03 12:08:01,512 - pydub.converter - DEBUG - subprocess output: b'  libavformat    61.  1.100 / 61.  1.100'
2024-10-03 12:08:01,512 - pydub.converter - DEBUG - subprocess output: b'  libavdevice    61.  1.100 / 61.  1.100'
2024-10-03 12:08:01,512 - pydub.converter - DEBUG - subprocess output: b'  libavfilter    10.  1.100 / 10.  1.100'
2024-10-03 12:08:01,512 - pydub.converter - DEBUG - subprocess output: b'  libswscale      8.  1.100 /  8.  1.100'
2024-10-03 12:08:01,512 - pydub.converter - DEBUG - subprocess output: b'  libswresample   5.  1.100 /  5.  1.100'
2024-10-03 12:08:01,512 - pydub.converter - DEBUG - subprocess output: b'  libpostproc    58.  1.100 / 58.  1.100'
2024-10-03 12:08:01,512 - pydub.converter - DEBUG - subprocess output: b'[aist#0:0/pcm_s16le @ 0x7fc10ef066c0] Guessed Channel Layout: mono'
2024-10-03 12:08:01,512 - pydub.converter - DEBUG - subprocess output: b"Input #0, wav, from '/var/folders/wt/j1gbj0y9587fq_vzh2v9451r0000gn/T/tmpgob8oc6p':"
2024-10-03 12:08:01,512 - pydub.converter - DEBUG - subprocess output: b'  Duration: 00:10:00.00, bitrate: 768 kb/s'
2024-10-03 12:08:01,512 - pydub.converter - DEBUG - subprocess output: b'  Stream #0:0: Audio: pcm_s16le ([1][0][0][0] / 0x0001), 48000 Hz, mono, s16, 768 kb/s'
2024-10-03 12:08:01,514 - pydub.converter - DEBUG - subprocess output: b'Stream mapping:'
2024-10-03 12:08:01,514 - pydub.converter - DEBUG - subprocess output: b'  Stream #0:0 -> #0:0 (pcm_s16le (native) -> mp3 (libmp3lame))'
2024-10-03 12:08:01,514 - pydub.converter - DEBUG - subprocess output: b'Press [q] to stop, [?] for help'
2024-10-03 12:08:01,514 - pydub.converter - DEBUG - subprocess output: b"Output #0, mp3, to '/var/folders/wt/j1gbj0y9587fq_vzh2v9451r0000gn/T/tmpyizjo4v4':"
2024-10-03 12:08:01,514 - pydub.converter - DEBUG - subprocess output: b'  Metadata:'
2024-10-03 12:08:01,514 - pydub.converter - DEBUG - subprocess output: b'    TSSE            : Lavf61.1.100'
2024-10-03 12:08:01,514 - pydub.converter - DEBUG - subprocess output: b'  Stream #0:0: Audio: mp3, 48000 Hz, mono, s16p'
2024-10-03 12:08:01,514 - pydub.converter - DEBUG - subprocess output: b'      Metadata:'
2024-10-03 12:08:01,514 - pydub.converter - DEBUG - subprocess output: b'        encoder         : Lavc61.3.100 libmp3lame'
2024-10-03 12:08:01,514 - pydub.converter - DEBUG - subprocess output: b'size=     512KiB time=00:01:16.08 bitrate=  55.1kbits/s speed= 151x'
2024-10-03 12:08:01,514 - pydub.converter - DEBUG - subprocess output: b'size=    1024KiB time=00:02:41.40 bitrate=  52.0kbits/s speed= 161x'
2024-10-03 12:08:01,514 - pydub.converter - DEBUG - subprocess output: b'size=    1792KiB time=00:04:08.66 bitrate=  59.0kbits/s speed= 165x'
2024-10-03 12:08:01,514 - pydub.converter - DEBUG - subprocess output: b'size=    2560KiB time=00:05:38.06 bitrate=  62.0kbits/s speed= 168x'
2024-10-03 12:08:01,514 - pydub.converter - DEBUG - subprocess output: b'size=    3328KiB time=00:07:11.78 bitrate=  63.1kbits/s speed= 171x'
2024-10-03 12:08:01,514 - pydub.converter - DEBUG - subprocess output: b'size=    4096KiB time=00:08:45.02 bitrate=  63.9kbits/s speed= 174x'
2024-10-03 12:08:01,515 - pydub.converter - DEBUG - subprocess output: b'[out#0/mp3 @ 0x7fc10ef06840] video:0KiB audio:4688KiB subtitle:0KiB other streams:0KiB global headers:0KiB muxing overhead: 0.004916%'
2024-10-03 12:08:01,515 - pydub.converter - DEBUG - subprocess output: b'size=    4688KiB time=00:10:00.00 bitrate=  64.0kbits/s speed= 175x'
2024-10-03 12:08:01,528 - openai._base_client - DEBUG - Request options: {'method': 'post', 'url': '/audio/transcriptions', 'headers': {'Content-Type': 'multipart/form-data'}, 'files': [('file', SerializationIterator(index=0, iterator=SerializationIterator(index=0, iterator=<_io.BufferedReader name='/var/folders/wt/j1gbj0y9587fq_vzh2v9451r0000gn/T/tmpweqyngbs.mp3'>)))], 'json_data': {'model': 'whisper-1', 'language': 'en', 'response_format': 'text'}}
2024-10-03 12:08:01,530 - openai._base_client - DEBUG - Sending HTTP Request: POST https://api.openai.com/v1/audio/transcriptions
2024-10-03 12:08:01,532 - httpcore.connection - DEBUG - connect_tcp.started host='api.openai.com' port=443 local_address=None timeout=5.0 socket_options=None
2024-10-03 12:08:01,569 - httpcore.connection - DEBUG - connect_tcp.complete return_value=<httpcore._backends.sync.SyncStream object at 0x10dae24b0>
2024-10-03 12:08:01,569 - httpcore.connection - DEBUG - start_tls.started ssl_context=<ssl.SSLContext object at 0x10661b550> server_hostname='api.openai.com' timeout=5.0
2024-10-03 12:08:01,596 - httpcore.connection - DEBUG - start_tls.complete return_value=<httpcore._backends.sync.SyncStream object at 0x10dae4800>
2024-10-03 12:08:01,597 - httpcore.http11 - DEBUG - send_request_headers.started request=<Request [b'POST']>
2024-10-03 12:08:01,597 - httpcore.http11 - DEBUG - send_request_headers.complete
2024-10-03 12:08:01,597 - httpcore.http11 - DEBUG - send_request_body.started request=<Request [b'POST']>
2024-10-03 12:08:02,733 - httpcore.http11 - DEBUG - send_request_body.complete
2024-10-03 12:08:02,734 - httpcore.http11 - DEBUG - receive_response_headers.started request=<Request [b'POST']>
2024-10-03 12:09:05,588 - httpcore.http11 - DEBUG - receive_response_headers.complete return_value=(b'HTTP/1.1', 200, b'OK', [(b'Date', b'Thu, 03 Oct 2024 10:09:05 GMT'), (b'Content-Type', b'text/plain; charset=utf-8'), (b'Transfer-Encoding', b'chunked'), (b'Connection', b'keep-alive'), (b'access-control-expose-headers', b'X-Request-ID'), (b'openai-organization', b'minute-memo'), (b'openai-processing-ms', b'61235'), (b'openai-version', b'2020-10-01'), (b'strict-transport-security', b'max-age=31536000; includeSubDomains; preload'), (b'x-ratelimit-limit-requests', b'500'), (b'x-ratelimit-remaining-requests', b'499'), (b'x-ratelimit-reset-requests', b'120ms'), (b'x-request-id', b'req_fb4ab031db7e563092bfd0fd5b07bfe8'), (b'CF-Cache-Status', b'DYNAMIC'), (b'Set-Cookie', b'__cf_bm=OanPnqKtH6ZwnLpIxj.kbL_1JlrXm4QNMnRE2rCryUQ-1727950145-1.0.1.1-Nfd97u4lU3xb41IGZ5QGK9sHNLulAW7aSkN1ySM5cxm7INhzko.Z6VC9NubttgQv8mMdhUGMhNzcnZaR8Mf_EQ; path=/; expires=Thu, 03-Oct-24 10:39:05 GMT; domain=.api.openai.com; HttpOnly; Secure; SameSite=None'), (b'X-Content-Type-Options', b'nosniff'), (b'Set-Cookie', b'_cfuvid=Y3Y0mo6_LTj1r8lAvhbz7OW609BKAp0YoN9LDuuUm7U-1727950145511-0.0.1.1-604800000; path=/; domain=.api.openai.com; HttpOnly; Secure; SameSite=None'), (b'Server', b'cloudflare'), (b'CF-RAY', b'8ccc20ea2d46b723-BRU'), (b'Content-Encoding', b'gzip')])
2024-10-03 12:09:05,594 - httpx - INFO - HTTP Request: POST https://api.openai.com/v1/audio/transcriptions "HTTP/1.1 200 OK"
2024-10-03 12:09:05,595 - httpcore.http11 - DEBUG - receive_response_body.started request=<Request [b'POST']>
2024-10-03 12:09:05,596 - httpcore.http11 - DEBUG - receive_response_body.complete
2024-10-03 12:09:05,597 - httpcore.http11 - DEBUG - response_closed.started
2024-10-03 12:09:05,597 - httpcore.http11 - DEBUG - response_closed.complete
2024-10-03 12:09:05,597 - openai._base_client - DEBUG - HTTP Response: POST https://api.openai.com/v1/audio/transcriptions "200 OK" Headers([('date', 'Thu, 03 Oct 2024 10:09:05 GMT'), ('content-type', 'text/plain; charset=utf-8'), ('transfer-encoding', 'chunked'), ('connection', 'keep-alive'), ('access-control-expose-headers', 'X-Request-ID'), ('openai-organization', 'minute-memo'), ('openai-processing-ms', '61235'), ('openai-version', '2020-10-01'), ('strict-transport-security', 'max-age=31536000; includeSubDomains; preload'), ('x-ratelimit-limit-requests', '500'), ('x-ratelimit-remaining-requests', '499'), ('x-ratelimit-reset-requests', '120ms'), ('x-request-id', 'req_fb4ab031db7e563092bfd0fd5b07bfe8'), ('cf-cache-status', 'DYNAMIC'), ('set-cookie', '__cf_bm=OanPnqKtH6ZwnLpIxj.kbL_1JlrXm4QNMnRE2rCryUQ-1727950145-1.0.1.1-Nfd97u4lU3xb41IGZ5QGK9sHNLulAW7aSkN1ySM5cxm7INhzko.Z6VC9NubttgQv8mMdhUGMhNzcnZaR8Mf_EQ; path=/; expires=Thu, 03-Oct-24 10:39:05 GMT; domain=.api.openai.com; HttpOnly; Secure; SameSite=None'), ('x-content-type-options', 'nosniff'), ('set-cookie', '_cfuvid=Y3Y0mo6_LTj1r8lAvhbz7OW609BKAp0YoN9LDuuUm7U-1727950145511-0.0.1.1-604800000; path=/; domain=.api.openai.com; HttpOnly; Secure; SameSite=None'), ('server', 'cloudflare'), ('cf-ray', '8ccc20ea2d46b723-BRU'), ('content-encoding', 'gzip')])
2024-10-03 12:09:05,598 - openai._base_client - DEBUG - request_id: req_fb4ab031db7e563092bfd0fd5b07bfe8
2024-10-03 12:09:05,600 - openai._response - DEBUG - Could not read JSON from response data due to <class 'json.decoder.JSONDecodeError'> - Expecting value: line 1 column 1 (char 0)
2024-10-03 12:09:05,603 - minutememo_app.app - INFO - Temporary chunk file deleted: /var/folders/wt/j1gbj0y9587fq_vzh2v9451r0000gn/T/tmpweqyngbs.mp3
2024-10-03 12:09:05,603 - minutememo_app.app - INFO - Processing chunk 2 of 6
2024-10-03 12:09:05,637 - pydub.converter - DEBUG - subprocess.call(['ffmpeg', '-y', '-f', 'wav', '-i', '/var/folders/wt/j1gbj0y9587fq_vzh2v9451r0000gn/T/tmpmnngfpga', '-f', 'mp3', '/var/folders/wt/j1gbj0y9587fq_vzh2v9451r0000gn/T/tmpc03rq3r5'])
2024-10-03 12:09:09,204 - pydub.converter - DEBUG - subprocess output: b'ffmpeg version 7.0.2 Copyright (c) 2000-2024 the FFmpeg developers'
2024-10-03 12:09:09,204 - pydub.converter - DEBUG - subprocess output: b'  built with Apple clang version 15.0.0 (clang-1500.3.9.4)'
2024-10-03 12:09:09,204 - pydub.converter - DEBUG - subprocess output: b"  configuration: --prefix=/usr/local/Cellar/ffmpeg/7.0.2 --enable-shared --enable-pthreads --enable-version3 --cc=clang --host-cflags= --host-ldflags='-Wl,-ld_classic' --enable-ffplay --enable-gnutls --enable-gpl --enable-libaom --enable-libaribb24 --enable-libbluray --enable-libdav1d --enable-libharfbuzz --enable-libjxl --enable-libmp3lame --enable-libopus --enable-librav1e --enable-librist --enable-librubberband --enable-libsnappy --enable-libsrt --enable-libssh --enable-libsvtav1 --enable-libtesseract --enable-libtheora --enable-libvidstab --enable-libvmaf --enable-libvorbis --enable-libvpx --enable-libwebp --enable-libx264 --enable-libx265 --enable-libxml2 --enable-libxvid --enable-lzma --enable-libfontconfig --enable-libfreetype --enable-frei0r --enable-libass --enable-libopencore-amrnb --enable-libopencore-amrwb --enable-libopenjpeg --enable-libspeex --enable-libsoxr --enable-libzmq --enable-libzimg --disable-libjack --disable-indev=jack --enable-videotoolbox --enable-audiotoolbox"
2024-10-03 12:09:09,204 - pydub.converter - DEBUG - subprocess output: b'  libavutil      59.  8.100 / 59.  8.100'
2024-10-03 12:09:09,205 - pydub.converter - DEBUG - subprocess output: b'  libavcodec     61.  3.100 / 61.  3.100'
2024-10-03 12:09:09,205 - pydub.converter - DEBUG - subprocess output: b'  libavformat    61.  1.100 / 61.  1.100'
2024-10-03 12:09:09,205 - pydub.converter - DEBUG - subprocess output: b'  libavdevice    61.  1.100 / 61.  1.100'
2024-10-03 12:09:09,205 - pydub.converter - DEBUG - subprocess output: b'  libavfilter    10.  1.100 / 10.  1.100'
2024-10-03 12:09:09,205 - pydub.converter - DEBUG - subprocess output: b'  libswscale      8.  1.100 /  8.  1.100'
2024-10-03 12:09:09,205 - pydub.converter - DEBUG - subprocess output: b'  libswresample   5.  1.100 /  5.  1.100'
2024-10-03 12:09:09,205 - pydub.converter - DEBUG - subprocess output: b'  libpostproc    58.  1.100 / 58.  1.100'
2024-10-03 12:09:09,205 - pydub.converter - DEBUG - subprocess output: b'[aist#0:0/pcm_s16le @ 0x7fe70d006500] Guessed Channel Layout: mono'
2024-10-03 12:09:09,205 - pydub.converter - DEBUG - subprocess output: b"Input #0, wav, from '/var/folders/wt/j1gbj0y9587fq_vzh2v9451r0000gn/T/tmpmnngfpga':"
2024-10-03 12:09:09,205 - pydub.converter - DEBUG - subprocess output: b'  Duration: 00:10:00.00, bitrate: 768 kb/s'
2024-10-03 12:09:09,205 - pydub.converter - DEBUG - subprocess output: b'  Stream #0:0: Audio: pcm_s16le ([1][0][0][0] / 0x0001), 48000 Hz, mono, s16, 768 kb/s'
2024-10-03 12:09:09,205 - pydub.converter - DEBUG - subprocess output: b'Stream mapping:'
2024-10-03 12:09:09,205 - pydub.converter - DEBUG - subprocess output: b'  Stream #0:0 -> #0:0 (pcm_s16le (native) -> mp3 (libmp3lame))'
2024-10-03 12:09:09,205 - pydub.converter - DEBUG - subprocess output: b'Press [q] to stop, [?] for help'
2024-10-03 12:09:09,205 - pydub.converter - DEBUG - subprocess output: b"Output #0, mp3, to '/var/folders/wt/j1gbj0y9587fq_vzh2v9451r0000gn/T/tmpc03rq3r5':"
2024-10-03 12:09:09,205 - pydub.converter - DEBUG - subprocess output: b'  Metadata:'
2024-10-03 12:09:09,205 - pydub.converter - DEBUG - subprocess output: b'    TSSE            : Lavf61.1.100'
2024-10-03 12:09:09,205 - pydub.converter - DEBUG - subprocess output: b'  Stream #0:0: Audio: mp3, 48000 Hz, mono, s16p'
2024-10-03 12:09:09,205 - pydub.converter - DEBUG - subprocess output: b'      Metadata:'
2024-10-03 12:09:09,205 - pydub.converter - DEBUG - subprocess output: b'        encoder         : Lavc61.3.100 libmp3lame'
2024-10-03 12:09:09,205 - pydub.converter - DEBUG - subprocess output: b'size=     512KiB time=00:01:28.08 bitrate=  47.6kbits/s speed= 175x'
2024-10-03 12:09:09,205 - pydub.converter - DEBUG - subprocess output: b'size=    1280KiB time=00:02:54.67 bitrate=  60.0kbits/s speed= 174x'
2024-10-03 12:09:09,205 - pydub.converter - DEBUG - subprocess output: b'size=    2048KiB time=00:04:28.75 bitrate=  62.4kbits/s speed= 178x'
2024-10-03 12:09:09,205 - pydub.converter - DEBUG - subprocess output: b'size=    2560KiB time=00:05:59.44 bitrate=  58.3kbits/s speed= 178x'
2024-10-03 12:09:09,205 - pydub.converter - DEBUG - subprocess output: b'size=    3328KiB time=00:07:30.88 bitrate=  60.5kbits/s speed= 179x'
2024-10-03 12:09:09,205 - pydub.converter - DEBUG - subprocess output: b'size=    4096KiB time=00:09:00.07 bitrate=  62.1kbits/s speed= 179x'
2024-10-03 12:09:09,205 - pydub.converter - DEBUG - subprocess output: b'[out#0/mp3 @ 0x7fe70d008e40] video:0KiB audio:4688KiB subtitle:0KiB other streams:0KiB global headers:0KiB muxing overhead: 0.004916%'
2024-10-03 12:09:09,205 - pydub.converter - DEBUG - subprocess output: b'size=    4688KiB time=00:10:00.00 bitrate=  64.0kbits/s speed= 179x'
2024-10-03 12:09:09,211 - openai._base_client - DEBUG - Request options: {'method': 'post', 'url': '/audio/transcriptions', 'headers': {'Content-Type': 'multipart/form-data'}, 'files': [('file', SerializationIterator(index=0, iterator=SerializationIterator(index=0, iterator=<_io.BufferedReader name='/var/folders/wt/j1gbj0y9587fq_vzh2v9451r0000gn/T/tmpb621828e.mp3'>)))], 'json_data': {'model': 'whisper-1', 'language': 'en', 'response_format': 'text'}}
2024-10-03 12:09:09,214 - openai._base_client - DEBUG - Sending HTTP Request: POST https://api.openai.com/v1/audio/transcriptions
2024-10-03 12:09:09,215 - httpcore.http11 - DEBUG - send_request_headers.started request=<Request [b'POST']>
2024-10-03 12:09:09,215 - httpcore.http11 - DEBUG - send_request_headers.complete
2024-10-03 12:09:09,215 - httpcore.http11 - DEBUG - send_request_body.started request=<Request [b'POST']>
2024-10-03 12:09:10,500 - httpcore.http11 - DEBUG - send_request_body.complete
2024-10-03 12:09:10,500 - httpcore.http11 - DEBUG - receive_response_headers.started request=<Request [b'POST']>
2024-10-03 12:09:35,580 - httpcore.http11 - DEBUG - receive_response_headers.complete return_value=(b'HTTP/1.1', 200, b'OK', [(b'Date', b'Thu, 03 Oct 2024 10:09:35 GMT'), (b'Content-Type', b'text/plain; charset=utf-8'), (b'Transfer-Encoding', b'chunked'), (b'Connection', b'keep-alive'), (b'access-control-expose-headers', b'X-Request-ID'), (b'openai-organization', b'minute-memo'), (b'openai-processing-ms', b'24190'), (b'openai-version', b'2020-10-01'), (b'strict-transport-security', b'max-age=31536000; includeSubDomains; preload'), (b'x-ratelimit-limit-requests', b'500'), (b'x-ratelimit-remaining-requests', b'499'), (b'x-ratelimit-reset-requests', b'120ms'), (b'x-request-id', b'req_8e8c092a748ab8d1163ec96a999badd1'), (b'CF-Cache-Status', b'DYNAMIC'), (b'X-Content-Type-Options', b'nosniff'), (b'Server', b'cloudflare'), (b'CF-RAY', b'8ccc2290fb0ab723-BRU'), (b'Content-Encoding', b'gzip')])
2024-10-03 12:09:35,584 - httpx - INFO - HTTP Request: POST https://api.openai.com/v1/audio/transcriptions "HTTP/1.1 200 OK"
2024-10-03 12:09:35,584 - httpcore.http11 - DEBUG - receive_response_body.started request=<Request [b'POST']>
2024-10-03 12:09:35,585 - httpcore.http11 - DEBUG - receive_response_body.complete
2024-10-03 12:09:35,585 - httpcore.http11 - DEBUG - response_closed.started
2024-10-03 12:09:35,585 - httpcore.http11 - DEBUG - response_closed.complete
2024-10-03 12:09:35,585 - openai._base_client - DEBUG - HTTP Response: POST https://api.openai.com/v1/audio/transcriptions "200 OK" Headers({'date': 'Thu, 03 Oct 2024 10:09:35 GMT', 'content-type': 'text/plain; charset=utf-8', 'transfer-encoding': 'chunked', 'connection': 'keep-alive', 'access-control-expose-headers': 'X-Request-ID', 'openai-organization': 'minute-memo', 'openai-processing-ms': '24190', 'openai-version': '2020-10-01', 'strict-transport-security': 'max-age=31536000; includeSubDomains; preload', 'x-ratelimit-limit-requests': '500', 'x-ratelimit-remaining-requests': '499', 'x-ratelimit-reset-requests': '120ms', 'x-request-id': 'req_8e8c092a748ab8d1163ec96a999badd1', 'cf-cache-status': 'DYNAMIC', 'x-content-type-options': 'nosniff', 'server': 'cloudflare', 'cf-ray': '8ccc2290fb0ab723-BRU', 'content-encoding': 'gzip'})
2024-10-03 12:09:35,586 - openai._base_client - DEBUG - request_id: req_8e8c092a748ab8d1163ec96a999badd1
2024-10-03 12:09:35,586 - openai._response - DEBUG - Could not read JSON from response data due to <class 'json.decoder.JSONDecodeError'> - Expecting value: line 1 column 1 (char 0)
2024-10-03 12:09:35,587 - minutememo_app.app - INFO - Temporary chunk file deleted: /var/folders/wt/j1gbj0y9587fq_vzh2v9451r0000gn/T/tmpb621828e.mp3
2024-10-03 12:09:35,587 - minutememo_app.app - INFO - Processing chunk 3 of 6
2024-10-03 12:09:35,617 - pydub.converter - DEBUG - subprocess.call(['ffmpeg', '-y', '-f', 'wav', '-i', '/var/folders/wt/j1gbj0y9587fq_vzh2v9451r0000gn/T/tmpspogvro8', '-f', 'mp3', '/var/folders/wt/j1gbj0y9587fq_vzh2v9451r0000gn/T/tmpcltglt51'])
2024-10-03 12:09:39,239 - pydub.converter - DEBUG - subprocess output: b'ffmpeg version 7.0.2 Copyright (c) 2000-2024 the FFmpeg developers'
2024-10-03 12:09:39,239 - pydub.converter - DEBUG - subprocess output: b'  built with Apple clang version 15.0.0 (clang-1500.3.9.4)'
2024-10-03 12:09:39,239 - pydub.converter - DEBUG - subprocess output: b"  configuration: --prefix=/usr/local/Cellar/ffmpeg/7.0.2 --enable-shared --enable-pthreads --enable-version3 --cc=clang --host-cflags= --host-ldflags='-Wl,-ld_classic' --enable-ffplay --enable-gnutls --enable-gpl --enable-libaom --enable-libaribb24 --enable-libbluray --enable-libdav1d --enable-libharfbuzz --enable-libjxl --enable-libmp3lame --enable-libopus --enable-librav1e --enable-librist --enable-librubberband --enable-libsnappy --enable-libsrt --enable-libssh --enable-libsvtav1 --enable-libtesseract --enable-libtheora --enable-libvidstab --enable-libvmaf --enable-libvorbis --enable-libvpx --enable-libwebp --enable-libx264 --enable-libx265 --enable-libxml2 --enable-libxvid --enable-lzma --enable-libfontconfig --enable-libfreetype --enable-frei0r --enable-libass --enable-libopencore-amrnb --enable-libopencore-amrwb --enable-libopenjpeg --enable-libspeex --enable-libsoxr --enable-libzmq --enable-libzimg --disable-libjack --disable-indev=jack --enable-videotoolbox --enable-audiotoolbox"
2024-10-03 12:09:39,239 - pydub.converter - DEBUG - subprocess output: b'  libavutil      59.  8.100 / 59.  8.100'
2024-10-03 12:09:39,239 - pydub.converter - DEBUG - subprocess output: b'  libavcodec     61.  3.100 / 61.  3.100'
2024-10-03 12:09:39,239 - pydub.converter - DEBUG - subprocess output: b'  libavformat    61.  1.100 / 61.  1.100'
2024-10-03 12:09:39,239 - pydub.converter - DEBUG - subprocess output: b'  libavdevice    61.  1.100 / 61.  1.100'
2024-10-03 12:09:39,239 - pydub.converter - DEBUG - subprocess output: b'  libavfilter    10.  1.100 / 10.  1.100'
2024-10-03 12:09:39,239 - pydub.converter - DEBUG - subprocess output: b'  libswscale      8.  1.100 /  8.  1.100'
2024-10-03 12:09:39,239 - pydub.converter - DEBUG - subprocess output: b'  libswresample   5.  1.100 /  5.  1.100'
2024-10-03 12:09:39,239 - pydub.converter - DEBUG - subprocess output: b'  libpostproc    58.  1.100 / 58.  1.100'
2024-10-03 12:09:39,239 - pydub.converter - DEBUG - subprocess output: b'[aist#0:0/pcm_s16le @ 0x7f9596806f40] Guessed Channel Layout: mono'
2024-10-03 12:09:39,240 - pydub.converter - DEBUG - subprocess output: b"Input #0, wav, from '/var/folders/wt/j1gbj0y9587fq_vzh2v9451r0000gn/T/tmpspogvro8':"
2024-10-03 12:09:39,240 - pydub.converter - DEBUG - subprocess output: b'  Duration: 00:10:00.00, bitrate: 768 kb/s'
2024-10-03 12:09:39,240 - pydub.converter - DEBUG - subprocess output: b'  Stream #0:0: Audio: pcm_s16le ([1][0][0][0] / 0x0001), 48000 Hz, mono, s16, 768 kb/s'
2024-10-03 12:09:39,240 - pydub.converter - DEBUG - subprocess output: b'Stream mapping:'
2024-10-03 12:09:39,240 - pydub.converter - DEBUG - subprocess output: b'  Stream #0:0 -> #0:0 (pcm_s16le (native) -> mp3 (libmp3lame))'
2024-10-03 12:09:39,240 - pydub.converter - DEBUG - subprocess output: b'Press [q] to stop, [?] for help'
2024-10-03 12:09:39,240 - pydub.converter - DEBUG - subprocess output: b"Output #0, mp3, to '/var/folders/wt/j1gbj0y9587fq_vzh2v9451r0000gn/T/tmpcltglt51':"
2024-10-03 12:09:39,240 - pydub.converter - DEBUG - subprocess output: b'  Metadata:'
2024-10-03 12:09:39,240 - pydub.converter - DEBUG - subprocess output: b'    TSSE            : Lavf61.1.100'
2024-10-03 12:09:39,240 - pydub.converter - DEBUG - subprocess output: b'  Stream #0:0: Audio: mp3, 48000 Hz, mono, s16p'
2024-10-03 12:09:39,240 - pydub.converter - DEBUG - subprocess output: b'      Metadata:'
2024-10-03 12:09:39,240 - pydub.converter - DEBUG - subprocess output: b'        encoder         : Lavc61.3.100 libmp3lame'
2024-10-03 12:09:39,240 - pydub.converter - DEBUG - subprocess output: b'size=     512KiB time=00:01:33.14 bitrate=  45.0kbits/s speed= 184x'
2024-10-03 12:09:39,240 - pydub.converter - DEBUG - subprocess output: b'size=    1280KiB time=00:03:00.14 bitrate=  58.2kbits/s speed= 179x'
2024-10-03 12:09:39,240 - pydub.converter - DEBUG - subprocess output: b'size=    2048KiB time=00:04:26.30 bitrate=  63.0kbits/s speed= 176x'
2024-10-03 12:09:39,240 - pydub.converter - DEBUG - subprocess output: b'size=    2560KiB time=00:05:52.75 bitrate=  59.5kbits/s speed= 175x'
2024-10-03 12:09:39,240 - pydub.converter - DEBUG - subprocess output: b'size=    3328KiB time=00:07:18.04 bitrate=  62.2kbits/s speed= 174x'
2024-10-03 12:09:39,240 - pydub.converter - DEBUG - subprocess output: b'size=    4096KiB time=00:08:44.47 bitrate=  64.0kbits/s speed= 174x'
2024-10-03 12:09:39,240 - pydub.converter - DEBUG - subprocess output: b'[out#0/mp3 @ 0x7f9595f2d240] video:0KiB audio:4688KiB subtitle:0KiB other streams:0KiB global headers:0KiB muxing overhead: 0.004916%'
2024-10-03 12:09:39,240 - pydub.converter - DEBUG - subprocess output: b'size=    4688KiB time=00:10:00.00 bitrate=  64.0kbits/s speed= 176x'
2024-10-03 12:09:39,246 - openai._base_client - DEBUG - Request options: {'method': 'post', 'url': '/audio/transcriptions', 'headers': {'Content-Type': 'multipart/form-data'}, 'files': [('file', SerializationIterator(index=0, iterator=SerializationIterator(index=0, iterator=<_io.BufferedReader name='/var/folders/wt/j1gbj0y9587fq_vzh2v9451r0000gn/T/tmpo80phnxl.mp3'>)))], 'json_data': {'model': 'whisper-1', 'language': 'en', 'response_format': 'text'}}
2024-10-03 12:09:39,247 - openai._base_client - DEBUG - Sending HTTP Request: POST https://api.openai.com/v1/audio/transcriptions
2024-10-03 12:09:39,248 - httpcore.http11 - DEBUG - send_request_headers.started request=<Request [b'POST']>
2024-10-03 12:09:39,248 - httpcore.http11 - DEBUG - send_request_headers.complete
2024-10-03 12:09:39,248 - httpcore.http11 - DEBUG - send_request_body.started request=<Request [b'POST']>
2024-10-03 12:09:39,766 - httpcore.http11 - DEBUG - send_request_body.complete
2024-10-03 12:09:39,767 - httpcore.http11 - DEBUG - receive_response_headers.started request=<Request [b'POST']>
2024-10-03 12:10:06,573 - httpcore.http11 - DEBUG - receive_response_headers.complete return_value=(b'HTTP/1.1', 200, b'OK', [(b'Date', b'Thu, 03 Oct 2024 10:10:06 GMT'), (b'Content-Type', b'text/plain; charset=utf-8'), (b'Transfer-Encoding', b'chunked'), (b'Connection', b'keep-alive'), (b'access-control-expose-headers', b'X-Request-ID'), (b'openai-organization', b'minute-memo'), (b'openai-processing-ms', b'25876'), (b'openai-version', b'2020-10-01'), (b'strict-transport-security', b'max-age=31536000; includeSubDomains; preload'), (b'x-ratelimit-limit-requests', b'500'), (b'x-ratelimit-remaining-requests', b'499'), (b'x-ratelimit-reset-requests', b'120ms'), (b'x-request-id', b'req_1839145ce744be6ea79dd0ff0d3fb7da'), (b'CF-Cache-Status', b'DYNAMIC'), (b'X-Content-Type-Options', b'nosniff'), (b'Server', b'cloudflare'), (b'CF-RAY', b'8ccc234c8878b723-BRU'), (b'Content-Encoding', b'gzip')])
2024-10-03 12:10:06,577 - httpx - INFO - HTTP Request: POST https://api.openai.com/v1/audio/transcriptions "HTTP/1.1 200 OK"
2024-10-03 12:10:06,577 - httpcore.http11 - DEBUG - receive_response_body.started request=<Request [b'POST']>
2024-10-03 12:10:06,578 - httpcore.http11 - DEBUG - receive_response_body.complete
2024-10-03 12:10:06,578 - httpcore.http11 - DEBUG - response_closed.started
2024-10-03 12:10:06,578 - httpcore.http11 - DEBUG - response_closed.complete
2024-10-03 12:10:06,578 - openai._base_client - DEBUG - HTTP Response: POST https://api.openai.com/v1/audio/transcriptions "200 OK" Headers({'date': 'Thu, 03 Oct 2024 10:10:06 GMT', 'content-type': 'text/plain; charset=utf-8', 'transfer-encoding': 'chunked', 'connection': 'keep-alive', 'access-control-expose-headers': 'X-Request-ID', 'openai-organization': 'minute-memo', 'openai-processing-ms': '25876', 'openai-version': '2020-10-01', 'strict-transport-security': 'max-age=31536000; includeSubDomains; preload', 'x-ratelimit-limit-requests': '500', 'x-ratelimit-remaining-requests': '499', 'x-ratelimit-reset-requests': '120ms', 'x-request-id': 'req_1839145ce744be6ea79dd0ff0d3fb7da', 'cf-cache-status': 'DYNAMIC', 'x-content-type-options': 'nosniff', 'server': 'cloudflare', 'cf-ray': '8ccc234c8878b723-BRU', 'content-encoding': 'gzip'})
2024-10-03 12:10:06,579 - openai._base_client - DEBUG - request_id: req_1839145ce744be6ea79dd0ff0d3fb7da
2024-10-03 12:10:06,579 - openai._response - DEBUG - Could not read JSON from response data due to <class 'json.decoder.JSONDecodeError'> - Expecting value: line 1 column 1 (char 0)
2024-10-03 12:10:06,581 - minutememo_app.app - INFO - Temporary chunk file deleted: /var/folders/wt/j1gbj0y9587fq_vzh2v9451r0000gn/T/tmpo80phnxl.mp3
2024-10-03 12:10:06,581 - minutememo_app.app - INFO - Processing chunk 4 of 6
2024-10-03 12:10:06,621 - pydub.converter - DEBUG - subprocess.call(['ffmpeg', '-y', '-f', 'wav', '-i', '/var/folders/wt/j1gbj0y9587fq_vzh2v9451r0000gn/T/tmpcry45i9f', '-f', 'mp3', '/var/folders/wt/j1gbj0y9587fq_vzh2v9451r0000gn/T/tmp_79k_tsu'])
2024-10-03 12:10:10,302 - pydub.converter - DEBUG - subprocess output: b'ffmpeg version 7.0.2 Copyright (c) 2000-2024 the FFmpeg developers'
2024-10-03 12:10:10,303 - pydub.converter - DEBUG - subprocess output: b'  built with Apple clang version 15.0.0 (clang-1500.3.9.4)'
2024-10-03 12:10:10,303 - pydub.converter - DEBUG - subprocess output: b"  configuration: --prefix=/usr/local/Cellar/ffmpeg/7.0.2 --enable-shared --enable-pthreads --enable-version3 --cc=clang --host-cflags= --host-ldflags='-Wl,-ld_classic' --enable-ffplay --enable-gnutls --enable-gpl --enable-libaom --enable-libaribb24 --enable-libbluray --enable-libdav1d --enable-libharfbuzz --enable-libjxl --enable-libmp3lame --enable-libopus --enable-librav1e --enable-librist --enable-librubberband --enable-libsnappy --enable-libsrt --enable-libssh --enable-libsvtav1 --enable-libtesseract --enable-libtheora --enable-libvidstab --enable-libvmaf --enable-libvorbis --enable-libvpx --enable-libwebp --enable-libx264 --enable-libx265 --enable-libxml2 --enable-libxvid --enable-lzma --enable-libfontconfig --enable-libfreetype --enable-frei0r --enable-libass --enable-libopencore-amrnb --enable-libopencore-amrwb --enable-libopenjpeg --enable-libspeex --enable-libsoxr --enable-libzmq --enable-libzimg --disable-libjack --disable-indev=jack --enable-videotoolbox --enable-audiotoolbox"
2024-10-03 12:10:10,303 - pydub.converter - DEBUG - subprocess output: b'  libavutil      59.  8.100 / 59.  8.100'
2024-10-03 12:10:10,303 - pydub.converter - DEBUG - subprocess output: b'  libavcodec     61.  3.100 / 61.  3.100'
2024-10-03 12:10:10,303 - pydub.converter - DEBUG - subprocess output: b'  libavformat    61.  1.100 / 61.  1.100'
2024-10-03 12:10:10,303 - pydub.converter - DEBUG - subprocess output: b'  libavdevice    61.  1.100 / 61.  1.100'
2024-10-03 12:10:10,303 - pydub.converter - DEBUG - subprocess output: b'  libavfilter    10.  1.100 / 10.  1.100'
2024-10-03 12:10:10,303 - pydub.converter - DEBUG - subprocess output: b'  libswscale      8.  1.100 /  8.  1.100'
2024-10-03 12:10:10,303 - pydub.converter - DEBUG - subprocess output: b'  libswresample   5.  1.100 /  5.  1.100'
2024-10-03 12:10:10,303 - pydub.converter - DEBUG - subprocess output: b'  libpostproc    58.  1.100 / 58.  1.100'
2024-10-03 12:10:10,303 - pydub.converter - DEBUG - subprocess output: b'[aist#0:0/pcm_s16le @ 0x7fb180804bc0] Guessed Channel Layout: mono'
2024-10-03 12:10:10,303 - pydub.converter - DEBUG - subprocess output: b"Input #0, wav, from '/var/folders/wt/j1gbj0y9587fq_vzh2v9451r0000gn/T/tmpcry45i9f':"
2024-10-03 12:10:10,303 - pydub.converter - DEBUG - subprocess output: b'  Duration: 00:10:00.00, bitrate: 768 kb/s'
2024-10-03 12:10:10,303 - pydub.converter - DEBUG - subprocess output: b'  Stream #0:0: Audio: pcm_s16le ([1][0][0][0] / 0x0001), 48000 Hz, mono, s16, 768 kb/s'
2024-10-03 12:10:10,303 - pydub.converter - DEBUG - subprocess output: b'Stream mapping:'
2024-10-03 12:10:10,304 - pydub.converter - DEBUG - subprocess output: b'  Stream #0:0 -> #0:0 (pcm_s16le (native) -> mp3 (libmp3lame))'
2024-10-03 12:10:10,304 - pydub.converter - DEBUG - subprocess output: b'Press [q] to stop, [?] for help'
2024-10-03 12:10:10,304 - pydub.converter - DEBUG - subprocess output: b"Output #0, mp3, to '/var/folders/wt/j1gbj0y9587fq_vzh2v9451r0000gn/T/tmp_79k_tsu':"
2024-10-03 12:10:10,304 - pydub.converter - DEBUG - subprocess output: b'  Metadata:'
2024-10-03 12:10:10,304 - pydub.converter - DEBUG - subprocess output: b'    TSSE            : Lavf61.1.100'
2024-10-03 12:10:10,304 - pydub.converter - DEBUG - subprocess output: b'  Stream #0:0: Audio: mp3, 48000 Hz, mono, s16p'
2024-10-03 12:10:10,304 - pydub.converter - DEBUG - subprocess output: b'      Metadata:'
2024-10-03 12:10:10,304 - pydub.converter - DEBUG - subprocess output: b'        encoder         : Lavc61.3.100 libmp3lame'
2024-10-03 12:10:10,304 - pydub.converter - DEBUG - subprocess output: b'size=     512KiB time=00:01:30.60 bitrate=  46.3kbits/s speed= 179x'
2024-10-03 12:10:10,304 - pydub.converter - DEBUG - subprocess output: b'size=    1024KiB time=00:02:39.40 bitrate=  52.6kbits/s speed= 158x'
2024-10-03 12:10:10,304 - pydub.converter - DEBUG - subprocess output: b'size=    1792KiB time=00:04:06.96 bitrate=  59.4kbits/s speed= 163x'
2024-10-03 12:10:10,304 - pydub.converter - DEBUG - subprocess output: b'size=    2560KiB time=00:05:38.11 bitrate=  62.0kbits/s speed= 168x'
2024-10-03 12:10:10,304 - pydub.converter - DEBUG - subprocess output: b'size=    3328KiB time=00:07:09.72 bitrate=  63.4kbits/s speed= 170x'
2024-10-03 12:10:10,304 - pydub.converter - DEBUG - subprocess output: b'size=    3840KiB time=00:08:41.06 bitrate=  60.4kbits/s speed= 172x'
2024-10-03 12:10:10,304 - pydub.converter - DEBUG - subprocess output: b'[out#0/mp3 @ 0x7fb180b04340] video:0KiB audio:4688KiB subtitle:0KiB other streams:0KiB global headers:0KiB muxing overhead: 0.004916%'
2024-10-03 12:10:10,304 - pydub.converter - DEBUG - subprocess output: b'size=    4688KiB time=00:10:00.00 bitrate=  64.0kbits/s speed= 174x'
2024-10-03 12:10:10,318 - openai._base_client - DEBUG - Request options: {'method': 'post', 'url': '/audio/transcriptions', 'headers': {'Content-Type': 'multipart/form-data'}, 'files': [('file', SerializationIterator(index=0, iterator=SerializationIterator(index=0, iterator=<_io.BufferedReader name='/var/folders/wt/j1gbj0y9587fq_vzh2v9451r0000gn/T/tmpv1tz8613.mp3'>)))], 'json_data': {'model': 'whisper-1', 'language': 'en', 'response_format': 'text'}}
2024-10-03 12:10:10,319 - openai._base_client - DEBUG - Sending HTTP Request: POST https://api.openai.com/v1/audio/transcriptions
2024-10-03 12:10:10,320 - httpcore.http11 - DEBUG - send_request_headers.started request=<Request [b'POST']>
2024-10-03 12:10:10,321 - httpcore.http11 - DEBUG - send_request_headers.complete
2024-10-03 12:10:10,321 - httpcore.http11 - DEBUG - send_request_body.started request=<Request [b'POST']>
2024-10-03 12:10:10,879 - httpcore.http11 - DEBUG - send_request_body.complete
2024-10-03 12:10:10,880 - httpcore.http11 - DEBUG - receive_response_headers.started request=<Request [b'POST']>
2024-10-03 12:10:44,253 - httpcore.http11 - DEBUG - receive_response_headers.complete return_value=(b'HTTP/1.1', 200, b'OK', [(b'Date', b'Thu, 03 Oct 2024 10:10:44 GMT'), (b'Content-Type', b'text/plain; charset=utf-8'), (b'Transfer-Encoding', b'chunked'), (b'Connection', b'keep-alive'), (b'access-control-expose-headers', b'X-Request-ID'), (b'openai-organization', b'minute-memo'), (b'openai-processing-ms', b'32648'), (b'openai-version', b'2020-10-01'), (b'strict-transport-security', b'max-age=31536000; includeSubDomains; preload'), (b'x-ratelimit-limit-requests', b'500'), (b'x-ratelimit-remaining-requests', b'499'), (b'x-ratelimit-reset-requests', b'120ms'), (b'x-request-id', b'req_5e231e9ccb6e128f91e4960a63767009'), (b'CF-Cache-Status', b'DYNAMIC'), (b'X-Content-Type-Options', b'nosniff'), (b'Server', b'cloudflare'), (b'CF-RAY', b'8ccc240eff28b723-BRU'), (b'Content-Encoding', b'gzip')])
2024-10-03 12:10:44,259 - httpx - INFO - HTTP Request: POST https://api.openai.com/v1/audio/transcriptions "HTTP/1.1 200 OK"
2024-10-03 12:10:44,260 - httpcore.http11 - DEBUG - receive_response_body.started request=<Request [b'POST']>
2024-10-03 12:10:44,261 - httpcore.http11 - DEBUG - receive_response_body.complete
2024-10-03 12:10:44,261 - httpcore.http11 - DEBUG - response_closed.started
2024-10-03 12:10:44,261 - httpcore.http11 - DEBUG - response_closed.complete
2024-10-03 12:10:44,262 - openai._base_client - DEBUG - HTTP Response: POST https://api.openai.com/v1/audio/transcriptions "200 OK" Headers({'date': 'Thu, 03 Oct 2024 10:10:44 GMT', 'content-type': 'text/plain; charset=utf-8', 'transfer-encoding': 'chunked', 'connection': 'keep-alive', 'access-control-expose-headers': 'X-Request-ID', 'openai-organization': 'minute-memo', 'openai-processing-ms': '32648', 'openai-version': '2020-10-01', 'strict-transport-security': 'max-age=31536000; includeSubDomains; preload', 'x-ratelimit-limit-requests': '500', 'x-ratelimit-remaining-requests': '499', 'x-ratelimit-reset-requests': '120ms', 'x-request-id': 'req_5e231e9ccb6e128f91e4960a63767009', 'cf-cache-status': 'DYNAMIC', 'x-content-type-options': 'nosniff', 'server': 'cloudflare', 'cf-ray': '8ccc240eff28b723-BRU', 'content-encoding': 'gzip'})
2024-10-03 12:10:44,262 - openai._base_client - DEBUG - request_id: req_5e231e9ccb6e128f91e4960a63767009
2024-10-03 12:10:44,263 - openai._response - DEBUG - Could not read JSON from response data due to <class 'json.decoder.JSONDecodeError'> - Expecting value: line 1 column 1 (char 0)
2024-10-03 12:10:44,265 - minutememo_app.app - INFO - Temporary chunk file deleted: /var/folders/wt/j1gbj0y9587fq_vzh2v9451r0000gn/T/tmpv1tz8613.mp3
2024-10-03 12:10:44,265 - minutememo_app.app - INFO - Processing chunk 5 of 6
2024-10-03 12:10:44,354 - pydub.converter - DEBUG - subprocess.call(['ffmpeg', '-y', '-f', 'wav', '-i', '/var/folders/wt/j1gbj0y9587fq_vzh2v9451r0000gn/T/tmpx7pgjmj6', '-f', 'mp3', '/var/folders/wt/j1gbj0y9587fq_vzh2v9451r0000gn/T/tmpya7myxum'])
2024-10-03 12:10:47,931 - pydub.converter - DEBUG - subprocess output: b'ffmpeg version 7.0.2 Copyright (c) 2000-2024 the FFmpeg developers'
2024-10-03 12:10:47,932 - pydub.converter - DEBUG - subprocess output: b'  built with Apple clang version 15.0.0 (clang-1500.3.9.4)'
2024-10-03 12:10:47,932 - pydub.converter - DEBUG - subprocess output: b"  configuration: --prefix=/usr/local/Cellar/ffmpeg/7.0.2 --enable-shared --enable-pthreads --enable-version3 --cc=clang --host-cflags= --host-ldflags='-Wl,-ld_classic' --enable-ffplay --enable-gnutls --enable-gpl --enable-libaom --enable-libaribb24 --enable-libbluray --enable-libdav1d --enable-libharfbuzz --enable-libjxl --enable-libmp3lame --enable-libopus --enable-librav1e --enable-librist --enable-librubberband --enable-libsnappy --enable-libsrt --enable-libssh --enable-libsvtav1 --enable-libtesseract --enable-libtheora --enable-libvidstab --enable-libvmaf --enable-libvorbis --enable-libvpx --enable-libwebp --enable-libx264 --enable-libx265 --enable-libxml2 --enable-libxvid --enable-lzma --enable-libfontconfig --enable-libfreetype --enable-frei0r --enable-libass --enable-libopencore-amrnb --enable-libopencore-amrwb --enable-libopenjpeg --enable-libspeex --enable-libsoxr --enable-libzmq --enable-libzimg --disable-libjack --disable-indev=jack --enable-videotoolbox --enable-audiotoolbox"
2024-10-03 12:10:47,932 - pydub.converter - DEBUG - subprocess output: b'  libavutil      59.  8.100 / 59.  8.100'
2024-10-03 12:10:47,932 - pydub.converter - DEBUG - subprocess output: b'  libavcodec     61.  3.100 / 61.  3.100'
2024-10-03 12:10:47,932 - pydub.converter - DEBUG - subprocess output: b'  libavformat    61.  1.100 / 61.  1.100'
2024-10-03 12:10:47,932 - pydub.converter - DEBUG - subprocess output: b'  libavdevice    61.  1.100 / 61.  1.100'
2024-10-03 12:10:47,932 - pydub.converter - DEBUG - subprocess output: b'  libavfilter    10.  1.100 / 10.  1.100'
2024-10-03 12:10:47,932 - pydub.converter - DEBUG - subprocess output: b'  libswscale      8.  1.100 /  8.  1.100'
2024-10-03 12:10:47,932 - pydub.converter - DEBUG - subprocess output: b'  libswresample   5.  1.100 /  5.  1.100'
2024-10-03 12:10:47,932 - pydub.converter - DEBUG - subprocess output: b'  libpostproc    58.  1.100 / 58.  1.100'
2024-10-03 12:10:47,932 - pydub.converter - DEBUG - subprocess output: b'[aist#0:0/pcm_s16le @ 0x7fed76719580] Guessed Channel Layout: mono'
2024-10-03 12:10:47,932 - pydub.converter - DEBUG - subprocess output: b"Input #0, wav, from '/var/folders/wt/j1gbj0y9587fq_vzh2v9451r0000gn/T/tmpx7pgjmj6':"
2024-10-03 12:10:47,932 - pydub.converter - DEBUG - subprocess output: b'  Duration: 00:10:00.00, bitrate: 768 kb/s'
2024-10-03 12:10:47,932 - pydub.converter - DEBUG - subprocess output: b'  Stream #0:0: Audio: pcm_s16le ([1][0][0][0] / 0x0001), 48000 Hz, mono, s16, 768 kb/s'
2024-10-03 12:10:47,932 - pydub.converter - DEBUG - subprocess output: b'Stream mapping:'
2024-10-03 12:10:47,932 - pydub.converter - DEBUG - subprocess output: b'  Stream #0:0 -> #0:0 (pcm_s16le (native) -> mp3 (libmp3lame))'
2024-10-03 12:10:47,932 - pydub.converter - DEBUG - subprocess output: b'Press [q] to stop, [?] for help'
2024-10-03 12:10:47,932 - pydub.converter - DEBUG - subprocess output: b"Output #0, mp3, to '/var/folders/wt/j1gbj0y9587fq_vzh2v9451r0000gn/T/tmpya7myxum':"
2024-10-03 12:10:47,932 - pydub.converter - DEBUG - subprocess output: b'  Metadata:'
2024-10-03 12:10:47,932 - pydub.converter - DEBUG - subprocess output: b'    TSSE            : Lavf61.1.100'
2024-10-03 12:10:47,932 - pydub.converter - DEBUG - subprocess output: b'  Stream #0:0: Audio: mp3, 48000 Hz, mono, s16p'
2024-10-03 12:10:47,933 - pydub.converter - DEBUG - subprocess output: b'      Metadata:'
2024-10-03 12:10:47,933 - pydub.converter - DEBUG - subprocess output: b'        encoder         : Lavc61.3.100 libmp3lame'
2024-10-03 12:10:47,933 - pydub.converter - DEBUG - subprocess output: b'size=     512KiB time=00:01:29.59 bitrate=  46.8kbits/s speed= 177x'
2024-10-03 12:10:47,933 - pydub.converter - DEBUG - subprocess output: b'size=    1280KiB time=00:03:02.13 bitrate=  57.6kbits/s speed= 180x'
2024-10-03 12:10:47,933 - pydub.converter - DEBUG - subprocess output: b'size=    2048KiB time=00:04:32.23 bitrate=  61.6kbits/s speed= 180x'
2024-10-03 12:10:47,933 - pydub.converter - DEBUG - subprocess output: b'size=    2816KiB time=00:06:05.49 bitrate=  63.1kbits/s speed= 181x'
2024-10-03 12:10:47,933 - pydub.converter - DEBUG - subprocess output: b'size=    3584KiB time=00:07:40.32 bitrate=  63.8kbits/s speed= 183x'
2024-10-03 12:10:47,933 - pydub.converter - DEBUG - subprocess output: b'size=    4096KiB time=00:09:07.87 bitrate=  61.2kbits/s speed= 181x'
2024-10-03 12:10:47,933 - pydub.converter - DEBUG - subprocess output: b'[out#0/mp3 @ 0x7fed7671bf40] video:0KiB audio:4688KiB subtitle:0KiB other streams:0KiB global headers:0KiB muxing overhead: 0.004916%'
2024-10-03 12:10:47,933 - pydub.converter - DEBUG - subprocess output: b'size=    4688KiB time=00:10:00.00 bitrate=  64.0kbits/s speed= 181x'
2024-10-03 12:10:47,952 - openai._base_client - DEBUG - Request options: {'method': 'post', 'url': '/audio/transcriptions', 'headers': {'Content-Type': 'multipart/form-data'}, 'files': [('file', SerializationIterator(index=0, iterator=SerializationIterator(index=0, iterator=<_io.BufferedReader name='/var/folders/wt/j1gbj0y9587fq_vzh2v9451r0000gn/T/tmp41cgi6bw.mp3'>)))], 'json_data': {'model': 'whisper-1', 'language': 'en', 'response_format': 'text'}}
2024-10-03 12:10:47,954 - openai._base_client - DEBUG - Sending HTTP Request: POST https://api.openai.com/v1/audio/transcriptions
2024-10-03 12:10:47,954 - httpcore.http11 - DEBUG - send_request_headers.started request=<Request [b'POST']>
2024-10-03 12:10:47,954 - httpcore.http11 - DEBUG - send_request_headers.complete
2024-10-03 12:10:47,954 - httpcore.http11 - DEBUG - send_request_body.started request=<Request [b'POST']>
2024-10-03 12:10:48,549 - httpcore.http11 - DEBUG - send_request_body.complete
2024-10-03 12:10:48,549 - httpcore.http11 - DEBUG - receive_response_headers.started request=<Request [b'POST']>
2024-10-03 12:11:23,391 - httpcore.http11 - DEBUG - receive_response_headers.complete return_value=(b'HTTP/1.1', 200, b'OK', [(b'Date', b'Thu, 03 Oct 2024 10:11:23 GMT'), (b'Content-Type', b'text/plain; charset=utf-8'), (b'Transfer-Encoding', b'chunked'), (b'Connection', b'keep-alive'), (b'access-control-expose-headers', b'X-Request-ID'), (b'openai-organization', b'minute-memo'), (b'openai-processing-ms', b'34134'), (b'openai-version', b'2020-10-01'), (b'strict-transport-security', b'max-age=31536000; includeSubDomains; preload'), (b'x-ratelimit-limit-requests', b'500'), (b'x-ratelimit-remaining-requests', b'499'), (b'x-ratelimit-reset-requests', b'120ms'), (b'x-request-id', b'req_24b861311a7b26a8070a49607dc15d3a'), (b'CF-Cache-Status', b'DYNAMIC'), (b'X-Content-Type-Options', b'nosniff'), (b'Server', b'cloudflare'), (b'CF-RAY', b'8ccc24fa1e0bb723-BRU'), (b'Content-Encoding', b'gzip')])
2024-10-03 12:11:23,395 - httpx - INFO - HTTP Request: POST https://api.openai.com/v1/audio/transcriptions "HTTP/1.1 200 OK"
2024-10-03 12:11:23,395 - httpcore.http11 - DEBUG - receive_response_body.started request=<Request [b'POST']>
2024-10-03 12:11:23,399 - httpcore.http11 - DEBUG - receive_response_body.complete
2024-10-03 12:11:23,399 - httpcore.http11 - DEBUG - response_closed.started
2024-10-03 12:11:23,400 - httpcore.http11 - DEBUG - response_closed.complete
2024-10-03 12:11:23,400 - openai._base_client - DEBUG - HTTP Response: POST https://api.openai.com/v1/audio/transcriptions "200 OK" Headers({'date': 'Thu, 03 Oct 2024 10:11:23 GMT', 'content-type': 'text/plain; charset=utf-8', 'transfer-encoding': 'chunked', 'connection': 'keep-alive', 'access-control-expose-headers': 'X-Request-ID', 'openai-organization': 'minute-memo', 'openai-processing-ms': '34134', 'openai-version': '2020-10-01', 'strict-transport-security': 'max-age=31536000; includeSubDomains; preload', 'x-ratelimit-limit-requests': '500', 'x-ratelimit-remaining-requests': '499', 'x-ratelimit-reset-requests': '120ms', 'x-request-id': 'req_24b861311a7b26a8070a49607dc15d3a', 'cf-cache-status': 'DYNAMIC', 'x-content-type-options': 'nosniff', 'server': 'cloudflare', 'cf-ray': '8ccc24fa1e0bb723-BRU', 'content-encoding': 'gzip'})
2024-10-03 12:11:23,401 - openai._base_client - DEBUG - request_id: req_24b861311a7b26a8070a49607dc15d3a
2024-10-03 12:11:23,402 - openai._response - DEBUG - Could not read JSON from response data due to <class 'json.decoder.JSONDecodeError'> - Expecting value: line 1 column 1 (char 0)
2024-10-03 12:11:23,403 - minutememo_app.app - INFO - Temporary chunk file deleted: /var/folders/wt/j1gbj0y9587fq_vzh2v9451r0000gn/T/tmp41cgi6bw.mp3
2024-10-03 12:11:23,403 - minutememo_app.app - INFO - Processing chunk 6 of 6
2024-10-03 12:11:23,427 - pydub.converter - DEBUG - subprocess.call(['ffmpeg', '-y', '-f', 'wav', '-i', '/var/folders/wt/j1gbj0y9587fq_vzh2v9451r0000gn/T/tmpeamqoiw3', '-f', 'mp3', '/var/folders/wt/j1gbj0y9587fq_vzh2v9451r0000gn/T/tmpvus0dbka'])
2024-10-03 12:11:25,718 - pydub.converter - DEBUG - subprocess output: b'ffmpeg version 7.0.2 Copyright (c) 2000-2024 the FFmpeg developers'
2024-10-03 12:11:25,718 - pydub.converter - DEBUG - subprocess output: b'  built with Apple clang version 15.0.0 (clang-1500.3.9.4)'
2024-10-03 12:11:25,718 - pydub.converter - DEBUG - subprocess output: b"  configuration: --prefix=/usr/local/Cellar/ffmpeg/7.0.2 --enable-shared --enable-pthreads --enable-version3 --cc=clang --host-cflags= --host-ldflags='-Wl,-ld_classic' --enable-ffplay --enable-gnutls --enable-gpl --enable-libaom --enable-libaribb24 --enable-libbluray --enable-libdav1d --enable-libharfbuzz --enable-libjxl --enable-libmp3lame --enable-libopus --enable-librav1e --enable-librist --enable-librubberband --enable-libsnappy --enable-libsrt --enable-libssh --enable-libsvtav1 --enable-libtesseract --enable-libtheora --enable-libvidstab --enable-libvmaf --enable-libvorbis --enable-libvpx --enable-libwebp --enable-libx264 --enable-libx265 --enable-libxml2 --enable-libxvid --enable-lzma --enable-libfontconfig --enable-libfreetype --enable-frei0r --enable-libass --enable-libopencore-amrnb --enable-libopencore-amrwb --enable-libopenjpeg --enable-libspeex --enable-libsoxr --enable-libzmq --enable-libzimg --disable-libjack --disable-indev=jack --enable-videotoolbox --enable-audiotoolbox"
2024-10-03 12:11:25,719 - pydub.converter - DEBUG - subprocess output: b'  libavutil      59.  8.100 / 59.  8.100'
2024-10-03 12:11:25,719 - pydub.converter - DEBUG - subprocess output: b'  libavcodec     61.  3.100 / 61.  3.100'
2024-10-03 12:11:25,719 - pydub.converter - DEBUG - subprocess output: b'  libavformat    61.  1.100 / 61.  1.100'
2024-10-03 12:11:25,719 - pydub.converter - DEBUG - subprocess output: b'  libavdevice    61.  1.100 / 61.  1.100'
2024-10-03 12:11:25,719 - pydub.converter - DEBUG - subprocess output: b'  libavfilter    10.  1.100 / 10.  1.100'
2024-10-03 12:11:25,719 - pydub.converter - DEBUG - subprocess output: b'  libswscale      8.  1.100 /  8.  1.100'
2024-10-03 12:11:25,719 - pydub.converter - DEBUG - subprocess output: b'  libswresample   5.  1.100 /  5.  1.100'
2024-10-03 12:11:25,719 - pydub.converter - DEBUG - subprocess output: b'  libpostproc    58.  1.100 / 58.  1.100'
2024-10-03 12:11:25,719 - pydub.converter - DEBUG - subprocess output: b'[aist#0:0/pcm_s16le @ 0x7fdb45f17bc0] Guessed Channel Layout: mono'
2024-10-03 12:11:25,719 - pydub.converter - DEBUG - subprocess output: b"Input #0, wav, from '/var/folders/wt/j1gbj0y9587fq_vzh2v9451r0000gn/T/tmpeamqoiw3':"
2024-10-03 12:11:25,719 - pydub.converter - DEBUG - subprocess output: b'  Duration: 00:06:01.44, bitrate: 768 kb/s'
2024-10-03 12:11:25,719 - pydub.converter - DEBUG - subprocess output: b'  Stream #0:0: Audio: pcm_s16le ([1][0][0][0] / 0x0001), 48000 Hz, mono, s16, 768 kb/s'
2024-10-03 12:11:25,719 - pydub.converter - DEBUG - subprocess output: b'Stream mapping:'
2024-10-03 12:11:25,719 - pydub.converter - DEBUG - subprocess output: b'  Stream #0:0 -> #0:0 (pcm_s16le (native) -> mp3 (libmp3lame))'
2024-10-03 12:11:25,719 - pydub.converter - DEBUG - subprocess output: b'Press [q] to stop, [?] for help'
2024-10-03 12:11:25,719 - pydub.converter - DEBUG - subprocess output: b"Output #0, mp3, to '/var/folders/wt/j1gbj0y9587fq_vzh2v9451r0000gn/T/tmpvus0dbka':"
2024-10-03 12:11:25,719 - pydub.converter - DEBUG - subprocess output: b'  Metadata:'
2024-10-03 12:11:25,719 - pydub.converter - DEBUG - subprocess output: b'    TSSE            : Lavf61.1.100'
2024-10-03 12:11:25,719 - pydub.converter - DEBUG - subprocess output: b'  Stream #0:0: Audio: mp3, 48000 Hz, mono, s16p'
2024-10-03 12:11:25,719 - pydub.converter - DEBUG - subprocess output: b'      Metadata:'
2024-10-03 12:11:25,719 - pydub.converter - DEBUG - subprocess output: b'        encoder         : Lavc61.3.100 libmp3lame'
2024-10-03 12:11:25,719 - pydub.converter - DEBUG - subprocess output: b'size=     512KiB time=00:01:25.60 bitrate=  49.0kbits/s speed= 170x'
2024-10-03 12:11:25,719 - pydub.converter - DEBUG - subprocess output: b'size=    1280KiB time=00:02:54.48 bitrate=  60.1kbits/s speed= 173x'
2024-10-03 12:11:25,719 - pydub.converter - DEBUG - subprocess output: b'size=    2048KiB time=00:04:22.29 bitrate=  64.0kbits/s speed= 174x'
2024-10-03 12:11:25,719 - pydub.converter - DEBUG - subprocess output: b'size=    2560KiB time=00:05:56.61 bitrate=  58.8kbits/s speed= 177x'
2024-10-03 12:11:25,719 - pydub.converter - DEBUG - subprocess output: b'[out#0/mp3 @ 0x7fdb46c045c0] video:0KiB audio:2824KiB subtitle:0KiB other streams:0KiB global headers:0KiB muxing overhead: 0.008161%'
2024-10-03 12:11:25,719 - pydub.converter - DEBUG - subprocess output: b'size=    2824KiB time=00:06:01.44 bitrate=  64.0kbits/s speed= 177x'
2024-10-03 12:11:25,723 - openai._base_client - DEBUG - Request options: {'method': 'post', 'url': '/audio/transcriptions', 'headers': {'Content-Type': 'multipart/form-data'}, 'files': [('file', SerializationIterator(index=0, iterator=SerializationIterator(index=0, iterator=<_io.BufferedReader name='/var/folders/wt/j1gbj0y9587fq_vzh2v9451r0000gn/T/tmp1f5jaugm.mp3'>)))], 'json_data': {'model': 'whisper-1', 'language': 'en', 'response_format': 'text'}}
2024-10-03 12:11:25,725 - openai._base_client - DEBUG - Sending HTTP Request: POST https://api.openai.com/v1/audio/transcriptions
2024-10-03 12:11:25,725 - httpcore.http11 - DEBUG - send_request_headers.started request=<Request [b'POST']>
2024-10-03 12:11:25,726 - httpcore.http11 - DEBUG - send_request_headers.complete
2024-10-03 12:11:25,726 - httpcore.http11 - DEBUG - send_request_body.started request=<Request [b'POST']>
2024-10-03 12:11:26,140 - httpcore.http11 - DEBUG - send_request_body.complete
2024-10-03 12:11:26,142 - httpcore.http11 - DEBUG - receive_response_headers.started request=<Request [b'POST']>
2024-10-03 12:11:53,057 - httpcore.http11 - DEBUG - receive_response_headers.complete return_value=(b'HTTP/1.1', 200, b'OK', [(b'Date', b'Thu, 03 Oct 2024 10:11:53 GMT'), (b'Content-Type', b'text/plain; charset=utf-8'), (b'Transfer-Encoding', b'chunked'), (b'Connection', b'keep-alive'), (b'access-control-expose-headers', b'X-Request-ID'), (b'openai-organization', b'minute-memo'), (b'openai-processing-ms', b'26236'), (b'openai-version', b'2020-10-01'), (b'strict-transport-security', b'max-age=31536000; includeSubDomains; preload'), (b'x-ratelimit-limit-requests', b'500'), (b'x-ratelimit-remaining-requests', b'499'), (b'x-ratelimit-reset-requests', b'120ms'), (b'x-request-id', b'req_f6d5eb7b74e021c22db21b34777c9be2'), (b'CF-Cache-Status', b'DYNAMIC'), (b'X-Content-Type-Options', b'nosniff'), (b'Server', b'cloudflare'), (b'CF-RAY', b'8ccc25e62eddb723-BRU'), (b'Content-Encoding', b'gzip')])
2024-10-03 12:11:53,063 - httpx - INFO - HTTP Request: POST https://api.openai.com/v1/audio/transcriptions "HTTP/1.1 200 OK"
2024-10-03 12:11:53,064 - httpcore.http11 - DEBUG - receive_response_body.started request=<Request [b'POST']>
2024-10-03 12:11:53,065 - httpcore.http11 - DEBUG - receive_response_body.complete
2024-10-03 12:11:53,065 - httpcore.http11 - DEBUG - response_closed.started
2024-10-03 12:11:53,066 - httpcore.http11 - DEBUG - response_closed.complete
2024-10-03 12:11:53,066 - openai._base_client - DEBUG - HTTP Response: POST https://api.openai.com/v1/audio/transcriptions "200 OK" Headers({'date': 'Thu, 03 Oct 2024 10:11:53 GMT', 'content-type': 'text/plain; charset=utf-8', 'transfer-encoding': 'chunked', 'connection': 'keep-alive', 'access-control-expose-headers': 'X-Request-ID', 'openai-organization': 'minute-memo', 'openai-processing-ms': '26236', 'openai-version': '2020-10-01', 'strict-transport-security': 'max-age=31536000; includeSubDomains; preload', 'x-ratelimit-limit-requests': '500', 'x-ratelimit-remaining-requests': '499', 'x-ratelimit-reset-requests': '120ms', 'x-request-id': 'req_f6d5eb7b74e021c22db21b34777c9be2', 'cf-cache-status': 'DYNAMIC', 'x-content-type-options': 'nosniff', 'server': 'cloudflare', 'cf-ray': '8ccc25e62eddb723-BRU', 'content-encoding': 'gzip'})
2024-10-03 12:11:53,066 - openai._base_client - DEBUG - request_id: req_f6d5eb7b74e021c22db21b34777c9be2
2024-10-03 12:11:53,068 - openai._response - DEBUG - Could not read JSON from response data due to <class 'json.decoder.JSONDecodeError'> - Expecting value: line 1 column 1 (char 0)
2024-10-03 12:11:53,069 - minutememo_app.app - INFO - Temporary chunk file deleted: /var/folders/wt/j1gbj0y9587fq_vzh2v9451r0000gn/T/tmp1f5jaugm.mp3
2024-10-03 12:11:53,071 - minutememo_app.app - INFO - Temporary original audio file deleted: /var/folders/wt/j1gbj0y9587fq_vzh2v9451r0000gn/T/tmpig1k0jgv.mp3
